<?xml version="1.0" encoding="UTF-8" standalone="no"?>
<!-- Copyright 2017 mathsisfun.com -->
<svg xmlns="http://www.w3.org/2000/svg" width="188.4" height="171.4" version="1.1" style="font-family:'Comic Sans MS'; font-size:28px; stroke-width:0.2;">
<defs>
	<marker id="aa4" style="overflow:visible;" orient="auto">
		<path transform="matrix(0.4,0,0,0.4,4,0)" style="stroke:black; stroke-width:1pt;" d="M 0,0 5,-5 -12.5,0 5,5 Z"/>
	</marker>
	<marker id="aa3" style="overflow:visible;" orient="auto">
		<path transform="matrix(-0.4,0,0,-0.4,-4,0)" style="stroke:black; stroke-width:1pt;" d="M 0,0 5,-5 -12.5,0 5,5 Z"/>
	</marker>
	<marker id="aa2" style="overflow:visible;" orient="auto">
		<path transform="matrix(-1.1,0,0,-1.1,-1.1,0)" style="fill:#ff0000; stroke:#ff0000; stroke-width:0.63; stroke-linejoin:round;" d="M 8.7,4 -2.2,0 8.7,-4 c -1.7,2.4 -1.7,5.6 0,8 z"/>
	</marker>
	<marker id="aa1" style="overflow:visible;" orient="auto">
		<path transform="matrix(-1.1,0,0,-1.1,-1.1,0)" style="fill:#0000ff; stroke:#0000ff; stroke-width:0.63; stroke-linejoin:round;" d="M 8.7,4 -2.2,0 8.7,-4 c -1.7,2.4 -1.7,5.6 0,8 z"/>
	</marker>
	<marker id="aa5" style="overflow:visible;" orient="auto">
		<path transform="matrix(-0.4,0,0,-0.4,-4,0)" style="stroke:black; stroke-width:1pt;" d="M 0,0 5,-5 -12.5,0 5,5 Z"/>
	</marker>
</defs>
<g transform="translate(-3126.51,-1572.8)">
	<g transform="translate(185.83,-15.56)">
		<path style="fill:none; stroke:#19aeff;" d="m 2941.2,1654 h 168.3"/>
		<path style="fill:none; stroke:#19aeff;" d="m 2941.2,1632.9 h 168.3"/>
		<path style="fill:none; stroke:#19aeff;" d="m 2941.2,1611.8 h 168.3"/>
		<path style="fill:none; stroke:#19aeff;" d="m 2941.2,1590.6 h 168.3"/>
		<path style="fill:none; stroke:#19aeff;" d="m 2941.2,1759.7 h 168.3"/>
		<path style="fill:none; stroke:#19aeff;" d="m 2941.2,1717.4 h 168.3"/>
		<path style="fill:none; stroke:#19aeff;" d="m 2941.2,1696.3 h 168.3"/>
		<path style="fill:none; stroke:#19aeff;" d="m 2941.2,1675.2 h 168.3"/>
		<path style="fill:none; stroke:#19aeff;" d="m 2941.2,1738.5 h 168.3"/>
		<path style="fill:none; stroke:#19aeff;" d="m 2941.2,1664.6 h 168.3"/>
		<path style="fill:none; stroke:#19aeff;" d="m 2941.2,1643.5 h 168.3"/>
		<path style="fill:none; stroke:#19aeff;" d="m 2941.2,1622.3 h 168.3"/>
		<path style="fill:none; stroke:#19aeff;" d="m 2941.2,1601.2 h 168.3"/>
		<path style="fill:none; stroke:#19aeff;" d="m 2941.2,1728 h 168.3"/>
		<path style="fill:none; stroke:#19aeff;" d="m 2941.2,1706.8 h 168.3"/>
		<path style="fill:none; stroke:#19aeff;" d="m 2941.2,1685.7 h 168.3"/>
		<path style="fill:none; stroke:#19aeff;" d="m 2941.2,1749.1 h 168.3"/>
		<path style="fill:none; stroke:#19aeff;" d="M 3004.2,1759.3 V 1591"/>
		<path style="fill:none; stroke:#19aeff;" d="M 2983,1759.3 V 1591"/>
		<path style="fill:none; stroke:#19aeff;" d="M 2961.9,1759.3 V 1591"/>
		<path style="fill:none; stroke:#19aeff;" d="M 2940.8,1759.3 V 1591"/>
		<path style="fill:none; stroke:#19aeff;" d="M 3109.8,1759.3 V 1591"/>
		<path style="fill:none; stroke:#19aeff;" d="M 3067.6,1759.3 V 1591"/>
		<path style="fill:none; stroke:#19aeff;" d="M 3046.4,1759.3 V 1591"/>
		<path style="fill:none; stroke:#19aeff;" d="M 3025.3,1759.3 V 1591"/>
		<path style="fill:none; stroke:#19aeff;" d="M 3088.7,1759.3 V 1591"/>
		<path style="fill:none; stroke:#19aeff;" d="M 3014.7,1759.3 V 1591"/>
		<path style="fill:none; stroke:#19aeff;" d="M 2993.6,1759.3 V 1591"/>
		<path style="fill:none; stroke:#19aeff;" d="M 2972.5,1759.3 V 1591"/>
		<path style="fill:none; stroke:#19aeff;" d="M 2951.3,1759.3 V 1591"/>
		<path style="fill:none; stroke:#19aeff;" d="M 3078.1,1759.3 V 1591"/>
		<path style="fill:none; stroke:#19aeff;" d="M 3057,1759.3 V 1591"/>
		<path style="fill:none; stroke:#19aeff;" d="M 3035.9,1759.3 V 1591"/>
		<path style="fill:none; stroke:#19aeff;" d="M 3099.3,1759.3 V 1591"/>
	</g>
	<path style="marker-end:url(#aa1); fill:none; stroke:#0000ff; stroke-width:1.5;" d="m 3126.9,1701.1 h 185.3"/>
	<text x="3274.4" y="1724.8" style="font-size:31.2px; overflow:visible; fill:#0000ff; stroke-width:3;">x</text>
	<path style="marker-end:url(#aa2); fill:none; stroke:#ff0000; stroke-width:1.5;" d="M 3158.3,1743.7 V 1575.5"/>
	<text x="3138.8" y="1633.4" style="font-size:31.2px; overflow:visible; fill:#ff0000; stroke-width:3;">y</text>
	<text x="3240.1" y="1627.7" style="font-size:24.8px; color:black; overflow:visible; fill:black; stroke-width:1px;">(x,y)</text>
	<text x="3197.6" y="1657.1" style="font-weight:bold; color:black; overflow:visible; fill:black; stroke-width:1px;">a</text>
	<path style="marker-end:url(#aa3); fill:none; stroke:black; stroke-width:3.01;" d="m 3158.3,1700.6 81.2,-59.2"/>
	<g transform="matrix(0.530126,0,0,0.5,905.769,1092.57)">
		<path style="fill:none; stroke:black; stroke-width:0.97px;" d="m 4249.2,1222.1 v 50.4"/>
		<path style="fill:none; stroke:black; stroke-width:0.97px;" d="m 4411.1,1222.1 v 50.4"/>
		<path style="marker-start:url(#aa4); marker-end:url(#aa5); fill:none; stroke:black; stroke-width:2.04;" d="m 4252.3,1263.3 h 157.3"/>
	</g>
	<g transform="matrix(0,-0.38596,0.5,0,2638.77,3340.93)">
		<path style="fill:none; stroke:black; stroke-width:1.14px;" d="m 4249.2,1222.1 v 50.4"/>
		<path style="fill:none; stroke:black; stroke-width:1.14px;" d="m 4411.1,1222.1 v 50.4"/>
		<path style="marker-start:url(#aa4); marker-end:url(#aa5); fill:none; stroke:black; stroke-width:2.39;" d="m 4252.3,1263.3 h 157.3"/>
	</g>
	<text x="3195.8" y="1719.5" style="color:black; overflow:visible; fill:black; stroke-width:1px;">x</text>
	<text x="3254.3" y="1673.5" style="color:black; overflow:visible; fill:black; stroke-width:1px;">y</text>
</g>
</svg>