<svg xmlns="http://www.w3.org/2000/svg" xmlns:xlink="http://www.w3.org/1999/xlink" width="1080" zoomAndPan="magnify" viewBox="0 0 810 809.999993" height="1080" preserveAspectRatio="xMidYMid meet" version="1.0"><rect x="-81" width="972" fill="#ffffff" y="-80.999999" height="971.999992" fill-opacity="1"/><rect x="-81" width="972" fill="#151f28" y="-80.999999" height="971.999992" fill-opacity="1"/><rect x="-81" width="972" fill="#ffffff" y="-80.999999" height="971.999992" fill-opacity="1"/><rect x="-81" width="972" fill="#151f28" y="-80.999999" height="971.999992" fill-opacity="1"/><path fill="#ffffd2" d="M 613 356.601562 C 611.019531 356.605469 609.039062 356.65625 607.0625 356.753906 C 605.082031 356.855469 603.109375 357.003906 601.136719 357.199219 C 599.167969 357.394531 597.203125 357.640625 595.242188 357.933594 C 593.285156 358.226562 591.335938 358.566406 589.390625 358.953125 C 587.449219 359.339844 585.519531 359.777344 583.597656 360.257812 C 581.675781 360.742188 579.769531 361.273438 577.875 361.847656 C 575.980469 362.421875 574.101562 363.046875 572.238281 363.714844 C 570.371094 364.382812 568.527344 365.09375 566.695312 365.855469 C 564.867188 366.613281 563.058594 367.414062 561.265625 368.261719 C 559.476562 369.109375 557.710938 370 555.964844 370.933594 C 554.21875 371.867188 552.496094 372.84375 550.796875 373.863281 C 549.097656 374.878906 547.425781 375.9375 545.78125 377.039062 C 544.132812 378.140625 542.515625 379.277344 540.925781 380.457031 C 539.332031 381.636719 537.773438 382.855469 536.242188 384.109375 C 534.710938 385.367188 533.210938 386.660156 531.746094 387.988281 C 530.277344 389.316406 528.84375 390.679688 527.445312 392.078125 C 526.042969 393.480469 524.679688 394.914062 523.347656 396.378906 C 522.015625 397.84375 520.722656 399.34375 519.46875 400.871094 C 518.210938 402.402344 516.992188 403.960938 515.8125 405.550781 C 514.632812 407.140625 513.492188 408.757812 512.390625 410.402344 C 511.289062 412.046875 510.230469 413.71875 509.210938 415.414062 C 508.191406 417.113281 507.214844 418.832031 506.28125 420.578125 C 505.347656 422.320312 504.453125 424.089844 503.605469 425.878906 C 502.757812 427.664062 501.957031 429.472656 501.195312 431.300781 C 500.4375 433.128906 499.722656 434.976562 499.054688 436.835938 C 498.386719 438.699219 497.765625 440.578125 497.1875 442.472656 C 496.609375 444.363281 496.082031 446.269531 495.597656 448.191406 C 495.113281 450.109375 494.679688 452.039062 494.289062 453.980469 C 493.902344 455.921875 493.5625 457.871094 493.269531 459.828125 C 492.976562 461.785156 492.730469 463.746094 492.535156 465.714844 C 492.339844 467.683594 492.191406 469.65625 492.089844 471.632812 C 491.992188 473.609375 491.941406 475.589844 491.9375 477.566406 C 491.9375 478.382812 491.9375 479.203125 491.9375 480.019531 L 457.605469 539.398438 C 457.164062 540.175781 456.832031 541 456.601562 541.863281 C 456.375 542.730469 456.261719 543.609375 456.261719 544.503906 C 456.261719 545.398438 456.375 546.277344 456.601562 547.140625 C 456.832031 548.007812 457.164062 548.828125 457.605469 549.609375 C 458.046875 550.390625 458.582031 551.097656 459.214844 551.738281 C 459.84375 552.375 460.546875 552.921875 461.324219 553.375 C 462.097656 553.824219 462.921875 554.167969 463.785156 554.402344 C 464.652344 554.636719 465.535156 554.753906 466.433594 554.753906 L 481.964844 554.753906 L 481.964844 588.242188 C 481.96875 589.550781 482.035156 590.859375 482.164062 592.160156 C 482.296875 593.464844 482.492188 594.757812 482.75 596.042969 C 483.007812 597.328125 483.324219 598.597656 483.707031 599.851562 C 484.089844 601.101562 484.53125 602.335938 485.035156 603.542969 C 485.539062 604.753906 486.101562 605.9375 486.71875 607.089844 C 487.335938 608.246094 488.011719 609.367188 488.742188 610.457031 C 489.46875 611.546875 490.25 612.597656 491.082031 613.609375 C 491.914062 614.621094 492.792969 615.589844 493.71875 616.519531 C 494.648438 617.445312 495.617188 618.324219 496.632812 619.152344 C 497.644531 619.984375 498.695312 620.765625 499.785156 621.492188 C 500.875 622.222656 502 622.894531 503.152344 623.515625 C 504.308594 624.132812 505.492188 624.691406 506.703125 625.195312 C 507.914062 625.699219 509.148438 626.140625 510.402344 626.523438 C 511.65625 626.902344 512.925781 627.222656 514.210938 627.480469 C 515.496094 627.738281 516.792969 627.933594 518.097656 628.0625 C 519.398438 628.195312 520.707031 628.261719 522.019531 628.265625 L 559.128906 628.265625 L 559.128906 666.242188 C 559.128906 666.914062 559.195312 667.578125 559.328125 668.234375 C 559.457031 668.894531 559.652344 669.53125 559.90625 670.152344 C 560.164062 670.769531 560.480469 671.359375 560.851562 671.917969 C 561.226562 672.472656 561.648438 672.988281 562.125 673.464844 C 562.597656 673.9375 563.113281 674.359375 563.671875 674.734375 C 564.230469 675.105469 564.816406 675.421875 565.4375 675.675781 C 566.058594 675.933594 566.695312 676.125 567.355469 676.257812 C 568.011719 676.386719 568.675781 676.453125 569.347656 676.453125 L 691.390625 676.453125 C 692.0625 676.453125 692.726562 676.386719 693.382812 676.257812 C 694.042969 676.125 694.679688 675.933594 695.300781 675.675781 C 695.921875 675.421875 696.507812 675.105469 697.066406 674.734375 C 697.625 674.359375 698.140625 673.9375 698.617188 673.464844 C 699.089844 672.988281 699.511719 672.472656 699.886719 671.917969 C 700.257812 671.359375 700.574219 670.769531 700.832031 670.152344 C 701.085938 669.53125 701.28125 668.894531 701.410156 668.234375 C 701.542969 667.578125 701.609375 666.914062 701.609375 666.242188 L 701.609375 560.0625 C 703.609375 557.921875 705.53125 555.714844 707.375 553.4375 C 709.214844 551.15625 710.972656 548.816406 712.644531 546.410156 C 714.316406 544.003906 715.894531 541.539062 717.386719 539.019531 C 718.878906 536.496094 720.277344 533.925781 721.582031 531.304688 C 722.890625 528.679688 724.097656 526.015625 725.207031 523.304688 C 726.320312 520.59375 727.328125 517.847656 728.242188 515.0625 C 729.152344 512.277344 729.960938 509.464844 730.667969 506.625 C 731.375 503.78125 731.976562 500.917969 732.472656 498.03125 C 732.972656 495.144531 733.363281 492.242188 733.652344 489.328125 C 733.941406 486.414062 734.121094 483.492188 734.195312 480.566406 C 734.269531 477.636719 734.238281 474.710938 734.101562 471.785156 C 733.960938 468.859375 733.71875 465.941406 733.367188 463.035156 C 733.015625 460.125 732.5625 457.234375 732 454.359375 C 731.4375 451.484375 730.773438 448.636719 730.007812 445.808594 C 729.238281 442.980469 728.367188 440.1875 727.398438 437.425781 C 726.425781 434.660156 725.355469 431.9375 724.1875 429.25 C 723.015625 426.566406 721.75 423.925781 720.390625 421.332031 C 719.027344 418.738281 717.574219 416.195312 716.027344 413.710938 C 714.480469 411.222656 712.847656 408.792969 711.121094 406.421875 C 709.398438 404.054688 707.59375 401.75 705.703125 399.511719 C 703.8125 397.273438 701.839844 395.105469 699.792969 393.011719 C 697.746094 390.917969 695.625 388.898438 693.429688 386.957031 C 691.234375 385.015625 688.96875 383.160156 686.640625 381.382812 C 684.308594 379.605469 681.917969 377.914062 679.464844 376.3125 C 677.011719 374.710938 674.503906 373.199219 671.941406 371.777344 C 669.378906 370.355469 666.765625 369.03125 664.105469 367.800781 C 661.445312 366.566406 658.746094 365.433594 656.003906 364.398438 C 653.261719 363.367188 650.484375 362.429688 647.675781 361.597656 C 644.867188 360.765625 642.027344 360.035156 639.164062 359.40625 C 636.300781 358.78125 633.421875 358.257812 630.519531 357.839844 C 627.617188 357.421875 624.707031 357.109375 621.78125 356.902344 C 618.859375 356.695312 615.929688 356.597656 613 356.601562 Z M 563.953125 503.621094 C 563.265625 503.628906 562.582031 503.566406 561.90625 503.4375 C 561.230469 503.308594 560.574219 503.113281 559.9375 502.855469 C 559.300781 502.597656 558.691406 502.277344 558.117188 501.902344 C 557.542969 501.523438 557.011719 501.09375 556.519531 500.609375 C 556.03125 500.125 555.59375 499.601562 555.207031 499.03125 C 554.820312 498.460938 554.496094 497.859375 554.230469 497.226562 C 553.960938 496.59375 553.757812 495.9375 553.621094 495.265625 C 553.484375 494.589844 553.414062 493.910156 553.410156 493.222656 C 553.40625 492.535156 553.46875 491.855469 553.597656 491.179688 C 553.730469 490.503906 553.925781 489.847656 554.1875 489.210938 C 554.445312 488.574219 554.765625 487.96875 555.148438 487.398438 C 555.527344 486.824219 555.960938 486.292969 556.445312 485.804688 C 556.929688 485.316406 557.457031 484.878906 558.027344 484.496094 C 558.597656 484.113281 559.199219 483.789062 559.835938 483.523438 C 560.46875 483.257812 561.125 483.058594 561.800781 482.921875 C 562.472656 482.785156 563.15625 482.714844 563.84375 482.714844 C 564.53125 482.710938 565.214844 482.777344 565.890625 482.910156 C 566.5625 483.042969 567.21875 483.238281 567.855469 483.5 C 568.492188 483.761719 569.097656 484.085938 569.671875 484.464844 C 570.242188 484.847656 570.773438 485.28125 571.261719 485.765625 C 571.746094 486.25 572.183594 486.78125 572.566406 487.351562 C 572.949219 487.921875 573.273438 488.527344 573.535156 489.160156 C 573.800781 489.796875 574 490.449219 574.132812 491.125 C 574.265625 491.800781 574.335938 492.480469 574.335938 493.167969 C 574.355469 493.855469 574.308594 494.539062 574.195312 495.21875 C 574.082031 495.898438 573.902344 496.558594 573.65625 497.199219 C 573.410156 497.84375 573.101562 498.457031 572.734375 499.039062 C 572.367188 499.621094 571.945312 500.160156 571.46875 500.65625 C 570.992188 501.15625 570.472656 501.601562 569.910156 501.996094 C 569.34375 502.390625 568.746094 502.726562 568.117188 503 C 567.484375 503.277344 566.832031 503.488281 566.160156 503.632812 C 565.484375 503.777344 564.804688 503.859375 564.117188 503.867188 Z M 563.953125 503.621094 " fill-opacity="1" fill-rule="nonzero"/><path fill="#aa96da" d="M 685.421875 350.148438 C 684.871094 350.152344 684.324219 350.109375 683.777344 350.019531 C 683.234375 349.933594 682.699219 349.804688 682.175781 349.632812 C 681.652344 349.457031 681.144531 349.246094 680.652344 348.992188 C 680.164062 348.738281 679.699219 348.445312 679.253906 348.117188 C 678.8125 347.785156 678.398438 347.425781 678.015625 347.03125 C 677.628906 346.632812 677.28125 346.210938 676.964844 345.757812 C 676.648438 345.308594 676.367188 344.832031 676.128906 344.335938 C 675.890625 343.839844 675.691406 343.328125 675.53125 342.800781 C 671.699219 328.800781 666.796875 315.1875 660.820312 301.960938 C 658.992188 297.953125 657.070312 293.992188 655.050781 290.078125 C 653.03125 286.167969 650.917969 282.304688 648.707031 278.496094 C 646.5 274.6875 644.195312 270.933594 641.804688 267.238281 C 639.410156 263.542969 636.925781 259.90625 634.355469 256.332031 C 631.78125 252.757812 629.125 249.246094 626.378906 245.800781 C 623.632812 242.359375 620.808594 238.984375 617.898438 235.679688 C 614.984375 232.371094 611.996094 229.140625 608.925781 225.980469 C 605.859375 222.820312 602.714844 219.738281 599.492188 216.734375 C 596.273438 213.730469 592.980469 210.804688 589.617188 207.960938 C 586.25 205.121094 582.820312 202.359375 579.320312 199.683594 C 575.820312 197.011719 572.257812 194.421875 568.632812 191.921875 C 565.003906 189.421875 561.316406 187.011719 557.574219 184.691406 C 553.828125 182.371094 550.027344 180.144531 546.175781 178.011719 C 542.320312 175.878906 538.414062 173.84375 534.460938 171.902344 C 530.507812 169.957031 526.507812 168.113281 522.460938 166.371094 C 518.414062 164.625 514.332031 162.976562 510.203125 161.433594 C 506.078125 159.886719 501.917969 158.445312 497.71875 157.101562 C 493.523438 155.761719 489.296875 154.523438 485.039062 153.390625 C 480.78125 152.257812 476.5 151.226562 472.191406 150.304688 C 467.882812 149.378906 463.554688 148.5625 459.207031 147.851562 C 454.859375 147.140625 450.496094 146.535156 446.117188 146.035156 C 441.738281 145.539062 437.351562 145.148438 432.953125 144.867188 C 428.558594 144.582031 424.15625 144.410156 419.75 144.34375 C 415.34375 144.277344 410.9375 144.316406 406.535156 144.464844 C 402.132812 144.617188 397.734375 144.871094 393.34375 145.238281 C 388.953125 145.601562 384.574219 146.074219 380.207031 146.65625 C 375.835938 147.234375 371.488281 147.921875 367.152344 148.714844 C 362.816406 149.507812 358.507812 150.40625 354.214844 151.410156 C 349.925781 152.414062 345.664062 153.523438 341.429688 154.738281 C 337.191406 155.953125 332.988281 157.269531 328.816406 158.6875 C 324.648438 160.105469 320.515625 161.628906 316.417969 163.25 C 312.320312 164.875 308.269531 166.59375 304.257812 168.417969 C 291.289062 174.3125 278.863281 181.183594 266.980469 189.03125 C 255.09375 196.878906 243.894531 205.609375 233.386719 215.21875 C 232.894531 215.691406 232.359375 216.113281 231.78125 216.480469 C 231.203125 216.847656 230.59375 217.152344 229.957031 217.394531 C 229.316406 217.640625 228.660156 217.816406 227.984375 217.925781 C 227.308594 218.039062 226.628906 218.082031 225.945312 218.054688 C 225.261719 218.027344 224.589844 217.933594 223.925781 217.769531 C 223.261719 217.605469 222.621094 217.378906 222 217.085938 C 221.382812 216.792969 220.800781 216.441406 220.253906 216.03125 C 219.707031 215.617188 219.207031 215.15625 218.753906 214.644531 C 218.300781 214.152344 217.902344 213.617188 217.550781 213.042969 C 217.203125 212.46875 216.914062 211.867188 216.683594 211.238281 C 216.453125 210.609375 216.289062 209.960938 216.183594 209.300781 C 216.078125 208.636719 216.042969 207.96875 216.066406 207.300781 C 216.09375 206.628906 216.1875 205.96875 216.339844 205.316406 C 216.496094 204.664062 216.714844 204.03125 216.996094 203.421875 C 217.273438 202.8125 217.609375 202.238281 218 201.691406 C 218.394531 201.148438 218.835938 200.648438 219.324219 200.1875 C 223.5 196.347656 227.785156 192.636719 232.179688 189.046875 C 236.570312 185.457031 241.066406 182 245.664062 178.675781 C 250.261719 175.351562 254.949219 172.164062 259.734375 169.117188 C 264.519531 166.066406 269.386719 163.160156 274.34375 160.398438 C 279.296875 157.632812 284.332031 155.019531 289.4375 152.550781 C 294.546875 150.082031 299.726562 147.765625 304.96875 145.601562 C 310.214844 143.4375 315.519531 141.429688 320.882812 139.578125 C 326.246094 137.722656 331.65625 136.03125 337.121094 134.496094 C 342.582031 132.960938 348.085938 131.585938 353.628906 130.375 C 359.171875 129.160156 364.746094 128.113281 370.351562 127.226562 C 375.957031 126.34375 381.582031 125.625 387.230469 125.070312 C 392.878906 124.515625 398.535156 124.125 404.207031 123.902344 C 409.875 123.679688 415.546875 123.625 421.222656 123.734375 C 426.894531 123.847656 432.558594 124.125 438.21875 124.566406 C 443.875 125.007812 449.515625 125.617188 455.136719 126.390625 C 460.757812 127.167969 466.351562 128.105469 471.917969 129.207031 C 477.484375 130.308594 483.011719 131.574219 488.503906 133 C 493.996094 134.429688 499.441406 136.015625 504.839844 137.761719 C 510.238281 139.507812 515.582031 141.410156 520.867188 143.472656 C 526.152344 145.53125 531.375 147.746094 536.53125 150.113281 C 541.6875 152.480469 546.769531 154.996094 551.78125 157.660156 C 556.789062 160.324219 561.714844 163.136719 566.558594 166.089844 C 571.402344 169.042969 576.152344 172.136719 580.816406 175.371094 C 585.476562 178.605469 590.039062 181.972656 594.503906 185.472656 C 598.964844 188.972656 603.324219 192.601562 607.574219 196.359375 C 611.824219 200.117188 615.960938 203.992188 619.980469 207.992188 C 624.003906 211.992188 627.90625 216.105469 631.6875 220.335938 C 635.464844 224.566406 639.117188 228.902344 642.644531 233.34375 C 646.167969 237.785156 649.5625 242.328125 652.820312 246.972656 C 656.078125 251.613281 659.195312 256.347656 662.175781 261.171875 C 665.15625 265.996094 667.992188 270.90625 670.683594 275.898438 C 673.375 280.890625 675.917969 285.957031 678.3125 291.097656 L 682.152344 230.492188 C 682.191406 229.824219 682.292969 229.171875 682.457031 228.523438 C 682.625 227.878906 682.851562 227.257812 683.140625 226.65625 C 683.429688 226.054688 683.773438 225.488281 684.175781 224.957031 C 684.574219 224.425781 685.023438 223.9375 685.523438 223.492188 C 686.019531 223.046875 686.554688 222.65625 687.128906 222.320312 C 687.703125 221.980469 688.308594 221.703125 688.9375 221.484375 C 689.566406 221.261719 690.210938 221.109375 690.871094 221.015625 C 691.53125 220.921875 692.195312 220.898438 692.863281 220.933594 C 693.53125 220.980469 694.191406 221.09375 694.835938 221.269531 C 695.484375 221.445312 696.109375 221.679688 696.710938 221.976562 C 697.3125 222.273438 697.878906 222.628906 698.414062 223.035156 C 698.945312 223.445312 699.433594 223.902344 699.875 224.402344 C 700.320312 224.90625 700.710938 225.449219 701.046875 226.027344 C 701.386719 226.609375 701.664062 227.214844 701.882812 227.851562 C 702.101562 228.484375 702.253906 229.132812 702.347656 229.796875 C 702.4375 230.460938 702.464844 231.128906 702.425781 231.796875 L 695.394531 340.59375 C 695.363281 341.191406 695.277344 341.785156 695.140625 342.367188 C 695.003906 342.953125 694.8125 343.519531 694.574219 344.070312 C 694.335938 344.621094 694.046875 345.144531 693.714844 345.644531 C 693.382812 346.140625 693.003906 346.605469 692.589844 347.039062 C 692.171875 347.46875 691.71875 347.863281 691.230469 348.210938 C 690.746094 348.5625 690.230469 348.867188 689.6875 349.125 C 689.144531 349.386719 688.585938 349.59375 688.007812 349.75 C 687.425781 349.910156 686.839844 350.015625 686.242188 350.066406 Z M 685.421875 350.148438 " fill-opacity="1" fill-rule="nonzero"/><path fill="#a8d8ea" d="M 415.835938 702.835938 C 412.417969 702.832031 409.003906 702.773438 405.589844 702.648438 C 402.179688 702.527344 398.765625 702.34375 395.359375 702.101562 C 391.953125 701.859375 388.550781 701.558594 385.15625 701.195312 C 381.757812 700.832031 378.371094 700.410156 374.988281 699.929688 C 371.605469 699.445312 368.234375 698.90625 364.871094 698.304688 C 361.511719 697.703125 358.160156 697.042969 354.820312 696.324219 C 351.480469 695.605469 348.15625 694.828125 344.84375 693.992188 C 341.53125 693.15625 338.238281 692.265625 334.957031 691.3125 C 331.675781 690.359375 328.414062 689.351562 325.167969 688.28125 C 321.925781 687.214844 318.699219 686.089844 315.496094 684.910156 C 312.289062 683.730469 309.109375 682.492188 305.945312 681.199219 C 302.785156 679.90625 299.648438 678.558594 296.535156 677.15625 C 293.421875 675.753906 290.332031 674.292969 287.269531 672.78125 C 284.210938 671.269531 281.175781 669.703125 278.167969 668.085938 C 275.160156 666.464844 272.183594 664.792969 269.234375 663.070312 C 266.289062 661.34375 263.371094 659.570312 260.488281 657.742188 C 257.601562 655.914062 254.75 654.039062 251.929688 652.109375 C 249.113281 650.183594 246.328125 648.207031 243.578125 646.179688 C 240.828125 644.15625 238.117188 642.082031 235.441406 639.960938 C 232.765625 637.839844 230.128906 635.671875 227.527344 633.457031 C 224.929688 631.242188 222.371094 628.984375 219.851562 626.679688 C 217.332031 624.375 214.851562 622.027344 212.414062 619.632812 C 209.980469 617.242188 207.585938 614.808594 205.234375 612.332031 C 202.882812 609.855469 200.578125 607.339844 198.316406 604.78125 C 196.054688 602.226562 193.835938 599.628906 191.667969 596.992188 C 189.496094 594.359375 187.375 591.683594 185.296875 588.972656 C 183.222656 586.265625 181.195312 583.519531 179.214844 580.734375 C 177.234375 577.953125 175.308594 575.136719 173.425781 572.289062 C 171.546875 569.4375 169.71875 566.558594 167.941406 563.640625 C 166.164062 560.726562 164.4375 557.785156 162.761719 554.808594 C 161.089844 551.832031 159.46875 548.828125 157.902344 545.796875 C 156.332031 542.765625 154.820312 539.707031 153.359375 536.621094 L 150.5 594.203125 C 150.464844 594.875 150.367188 595.535156 150.207031 596.1875 C 150.042969 596.835938 149.816406 597.464844 149.53125 598.074219 C 149.246094 598.679688 148.902344 599.253906 148.503906 599.792969 C 148.101562 600.332031 147.65625 600.828125 147.15625 601.277344 C 146.660156 601.730469 146.125 602.125 145.546875 602.472656 C 144.972656 602.816406 144.367188 603.105469 143.738281 603.332031 C 143.105469 603.558594 142.457031 603.71875 141.792969 603.820312 C 141.128906 603.917969 140.460938 603.953125 139.789062 603.921875 C 139.121094 603.886719 138.457031 603.789062 137.804688 603.628906 C 137.15625 603.464844 136.523438 603.242188 135.917969 602.957031 C 135.308594 602.667969 134.738281 602.328125 134.195312 601.929688 C 133.65625 601.527344 133.160156 601.082031 132.710938 600.585938 C 132.257812 600.089844 131.859375 599.550781 131.511719 598.976562 C 131.167969 598.402344 130.878906 597.796875 130.652344 597.167969 C 130.425781 596.535156 130.261719 595.886719 130.164062 595.222656 C 130.0625 594.5625 130.03125 593.894531 130.0625 593.222656 L 135.457031 485.816406 C 135.492188 485.21875 135.578125 484.628906 135.71875 484.046875 C 135.855469 483.464844 136.042969 482.902344 136.28125 482.351562 C 136.519531 481.800781 136.804688 481.277344 137.136719 480.78125 C 137.464844 480.28125 137.835938 479.8125 138.25 479.378906 C 138.660156 478.945312 139.109375 478.550781 139.589844 478.195312 C 140.070312 477.839844 140.582031 477.53125 141.117188 477.265625 C 141.652344 477 142.210938 476.78125 142.785156 476.613281 C 143.359375 476.445312 143.945312 476.328125 144.539062 476.261719 C 145.132812 476.195312 145.730469 476.183594 146.328125 476.222656 C 146.925781 476.261719 147.515625 476.351562 148.097656 476.496094 C 148.679688 476.636719 149.242188 476.832031 149.789062 477.074219 C 150.335938 477.316406 150.859375 477.601562 151.355469 477.9375 C 151.855469 478.269531 152.316406 478.644531 152.75 479.058594 C 153.179688 479.476562 153.570312 479.925781 153.925781 480.410156 C 154.277344 480.894531 154.582031 481.402344 154.84375 481.941406 C 155.105469 482.480469 155.320312 483.035156 155.484375 483.613281 C 159.375 497.613281 164.332031 511.226562 170.363281 524.449219 C 172.183594 528.464844 174.105469 532.433594 176.125 536.351562 C 178.140625 540.269531 180.253906 544.140625 182.464844 547.953125 C 184.671875 551.769531 186.972656 555.53125 189.367188 559.234375 C 191.757812 562.9375 194.242188 566.578125 196.816406 570.160156 C 199.386719 573.742188 202.046875 577.257812 204.792969 580.707031 C 207.535156 584.15625 210.367188 587.539062 213.277344 590.851562 C 216.1875 594.164062 219.179688 597.402344 222.25 600.566406 C 225.320312 603.730469 228.46875 606.816406 231.691406 609.828125 C 234.914062 612.839844 238.207031 615.769531 241.574219 618.617188 C 244.941406 621.464844 248.375 624.230469 251.878906 626.910156 C 255.382812 629.589844 258.949219 632.179688 262.578125 634.6875 C 266.207031 637.191406 269.898438 639.605469 273.648438 641.929688 C 277.394531 644.253906 281.199219 646.484375 285.058594 648.621094 C 288.917969 650.757812 292.824219 652.796875 296.785156 654.742188 C 300.742188 656.6875 304.746094 658.535156 308.796875 660.28125 C 312.847656 662.03125 316.9375 663.679688 321.066406 665.226562 C 325.199219 666.773438 329.363281 668.21875 333.566406 669.5625 C 337.769531 670.90625 342 672.144531 346.261719 673.28125 C 350.527344 674.414062 354.8125 675.445312 359.128906 676.371094 C 363.441406 677.292969 367.773438 678.113281 372.128906 678.824219 C 376.480469 679.535156 380.851562 680.140625 385.234375 680.636719 C 389.617188 681.136719 394.011719 681.527344 398.414062 681.808594 C 402.816406 682.089844 407.222656 682.261719 411.632812 682.328125 C 416.042969 682.394531 420.453125 682.351562 424.863281 682.199219 C 429.273438 682.046875 433.675781 681.789062 438.070312 681.421875 C 442.46875 681.054688 446.851562 680.578125 451.226562 679.996094 C 455.597656 679.414062 459.953125 678.726562 464.292969 677.929688 C 468.632812 677.132812 472.949219 676.230469 477.242188 675.222656 C 481.539062 674.210938 485.804688 673.097656 490.042969 671.882812 C 494.285156 670.664062 498.492188 669.34375 502.667969 667.917969 C 506.839844 666.492188 510.980469 664.96875 515.078125 663.339844 C 519.179688 661.710938 523.234375 659.984375 527.25 658.15625 C 527.871094 657.785156 528.527344 657.484375 529.210938 657.25 C 529.898438 657.015625 530.601562 656.859375 531.320312 656.773438 C 532.039062 656.691406 532.761719 656.683594 533.484375 656.753906 C 534.203125 656.820312 534.910156 656.964844 535.601562 657.1875 C 536.292969 657.40625 536.949219 657.695312 537.578125 658.054688 C 538.207031 658.414062 538.792969 658.835938 539.332031 659.320312 C 539.871094 659.804688 540.351562 660.339844 540.777344 660.925781 C 541.203125 661.511719 541.5625 662.136719 541.855469 662.800781 C 542.144531 663.460938 542.367188 664.148438 542.511719 664.855469 C 542.65625 665.566406 542.726562 666.28125 542.722656 667.007812 C 542.714844 667.730469 542.632812 668.445312 542.472656 669.152344 C 542.3125 669.859375 542.082031 670.542969 541.777344 671.199219 C 541.472656 671.855469 541.105469 672.472656 540.667969 673.050781 C 540.234375 673.632812 539.742188 674.15625 539.195312 674.632812 C 538.644531 675.105469 538.054688 675.515625 537.417969 675.867188 C 536.785156 676.214844 536.121094 676.492188 535.425781 676.699219 C 526.066406 680.976562 516.507812 684.742188 506.75 687.996094 C 496.988281 691.25 487.085938 693.976562 477.03125 696.171875 C 466.980469 698.371094 456.839844 700.027344 446.613281 701.140625 C 436.382812 702.253906 426.125 702.816406 415.835938 702.835938 Z M 415.835938 702.835938 " fill-opacity="1" fill-rule="nonzero"/><path fill="#fcbad3" d="M 299.761719 337.40625 L 272.539062 290.441406 L 272.539062 289.054688 C 272.535156 287.0625 272.472656 285.074219 272.347656 283.085938 C 272.226562 281.097656 272.042969 279.113281 271.796875 277.136719 C 271.554688 275.160156 271.25 273.195312 270.886719 271.234375 C 270.523438 269.277344 270.097656 267.332031 269.617188 265.398438 C 269.136719 263.464844 268.597656 261.550781 268 259.648438 C 267.402344 257.75 266.746094 255.867188 266.035156 254.007812 C 265.324219 252.148438 264.554688 250.3125 263.730469 248.496094 C 262.90625 246.683594 262.03125 244.894531 261.097656 243.132812 C 260.167969 241.375 259.183594 239.644531 258.144531 237.941406 C 257.109375 236.242188 256.023438 234.570312 254.882812 232.9375 C 253.746094 231.300781 252.558594 229.703125 251.324219 228.136719 C 250.089844 226.574219 248.808594 225.050781 247.480469 223.566406 C 246.152344 222.078125 244.78125 220.632812 243.367188 219.230469 C 241.953125 217.828125 240.496094 216.46875 239 215.15625 C 237.5 213.839844 235.964844 212.574219 234.390625 211.351562 C 232.816406 210.128906 231.207031 208.957031 229.5625 207.832031 C 227.914062 206.707031 226.238281 205.632812 224.527344 204.613281 C 222.816406 203.589844 221.074219 202.621094 219.304688 201.703125 C 217.535156 200.785156 215.742188 199.921875 213.917969 199.113281 C 212.097656 198.304688 210.253906 197.554688 208.386719 196.855469 C 206.519531 196.160156 204.632812 195.519531 202.726562 194.9375 C 200.820312 194.355469 198.898438 193.832031 196.957031 193.367188 C 195.019531 192.898438 193.070312 192.492188 191.109375 192.144531 C 189.144531 191.796875 187.171875 191.507812 185.191406 191.28125 C 183.214844 191.050781 181.226562 190.882812 179.238281 190.777344 C 177.246094 190.667969 175.253906 190.621094 173.261719 190.632812 C 171.269531 190.644531 169.277344 190.71875 167.289062 190.851562 C 165.300781 190.984375 163.316406 191.175781 161.339844 191.429688 C 159.363281 191.683594 157.394531 191.996094 155.4375 192.367188 C 153.476562 192.738281 151.53125 193.171875 149.601562 193.660156 C 147.667969 194.152344 145.753906 194.699219 143.855469 195.304688 C 141.957031 195.910156 140.078125 196.574219 138.21875 197.292969 C 136.359375 198.015625 134.523438 198.789062 132.710938 199.621094 C 130.902344 200.453125 129.117188 201.335938 127.359375 202.277344 C 125.601562 203.214844 123.871094 204.207031 122.175781 205.25 C 120.476562 206.292969 118.8125 207.386719 117.179688 208.53125 C 115.550781 209.675781 113.953125 210.871094 112.394531 212.109375 C 110.835938 213.351562 109.316406 214.640625 107.835938 215.972656 C 106.355469 217.304688 104.914062 218.683594 103.519531 220.101562 C 102.121094 221.523438 100.765625 222.984375 99.457031 224.488281 C 98.148438 225.988281 96.886719 227.53125 95.671875 229.109375 C 94.457031 230.6875 93.289062 232.300781 92.171875 233.949219 C 91.054688 235.601562 89.988281 237.28125 88.972656 238.996094 C 87.957031 240.710938 86.996094 242.453125 86.085938 244.226562 C 85.175781 245.996094 84.320312 247.796875 83.519531 249.621094 C 82.71875 251.445312 81.976562 253.289062 81.285156 255.160156 C 80.597656 257.027344 79.96875 258.917969 79.394531 260.824219 C 78.820312 262.730469 78.304688 264.65625 77.847656 266.59375 C 77.386719 268.53125 76.988281 270.484375 76.652344 272.445312 C 76.3125 274.40625 76.03125 276.378906 75.8125 278.359375 C 75.59375 280.339844 75.433594 282.324219 75.335938 284.3125 C 75.234375 286.300781 75.199219 288.292969 75.21875 290.285156 C 75.242188 292.277344 75.324219 294.265625 75.464844 296.25 C 75.605469 298.238281 75.808594 300.21875 76.070312 302.191406 C 76.335938 304.167969 76.65625 306.132812 77.039062 308.085938 C 77.417969 310.042969 77.859375 311.984375 78.359375 313.910156 C 78.859375 315.839844 79.414062 317.75 80.03125 319.644531 C 80.644531 321.539062 81.320312 323.414062 82.046875 325.269531 C 82.777344 327.121094 83.5625 328.953125 84.402344 330.757812 C 85.242188 332.566406 86.136719 334.34375 87.082031 336.097656 C 88.03125 337.847656 89.03125 339.570312 90.082031 341.261719 C 91.136719 342.953125 92.238281 344.613281 93.390625 346.238281 C 94.542969 347.863281 95.746094 349.449219 96.996094 351.003906 C 98.242188 352.554688 99.539062 354.066406 100.878906 355.539062 L 100.878906 439.75 C 100.878906 440.421875 100.945312 441.085938 101.078125 441.742188 C 101.207031 442.398438 101.402344 443.039062 101.65625 443.65625 C 101.914062 444.277344 102.230469 444.867188 102.601562 445.421875 C 102.976562 445.980469 103.398438 446.496094 103.871094 446.96875 C 104.347656 447.445312 104.863281 447.867188 105.421875 448.238281 C 105.980469 448.613281 106.566406 448.925781 107.1875 449.183594 C 107.808594 449.441406 108.445312 449.632812 109.105469 449.765625 C 109.761719 449.894531 110.425781 449.960938 111.097656 449.960938 L 208.699219 449.960938 C 209.363281 449.949219 210.019531 449.875 210.667969 449.738281 C 211.316406 449.597656 211.949219 449.398438 212.558594 449.136719 C 213.167969 448.875 213.75 448.558594 214.296875 448.183594 C 214.84375 447.808594 215.351562 447.386719 215.816406 446.914062 C 216.285156 446.441406 216.699219 445.925781 217.066406 445.375 C 217.429688 444.820312 217.738281 444.234375 217.992188 443.621094 C 218.242188 443.007812 218.433594 442.375 218.5625 441.722656 C 218.6875 441.070312 218.753906 440.414062 218.753906 439.75 L 218.753906 411.488281 L 246.300781 411.488281 C 247.417969 411.488281 248.53125 411.433594 249.640625 411.324219 C 250.753906 411.214844 251.855469 411.054688 252.949219 410.835938 C 254.046875 410.617188 255.128906 410.347656 256.195312 410.023438 C 257.265625 409.699219 258.3125 409.324219 259.34375 408.898438 C 260.375 408.46875 261.382812 407.996094 262.367188 407.46875 C 263.355469 406.941406 264.308594 406.371094 265.238281 405.75 C 266.167969 405.128906 267.0625 404.464844 267.925781 403.757812 C 268.789062 403.050781 269.613281 402.304688 270.402344 401.515625 C 271.191406 400.726562 271.941406 399.898438 272.648438 399.039062 C 273.359375 398.175781 274.023438 397.28125 274.644531 396.351562 C 275.261719 395.425781 275.835938 394.46875 276.363281 393.484375 C 276.890625 392.503906 277.367188 391.496094 277.792969 390.464844 C 278.21875 389.433594 278.59375 388.386719 278.917969 387.316406 C 279.242188 386.25 279.515625 385.167969 279.734375 384.074219 C 279.949219 382.980469 280.113281 381.878906 280.222656 380.769531 C 280.332031 379.660156 280.386719 378.546875 280.386719 377.429688 L 280.386719 352.925781 L 290.6875 352.925781 C 291.132812 352.925781 291.578125 352.894531 292.023438 352.832031 C 292.464844 352.773438 292.902344 352.683594 293.332031 352.566406 C 293.765625 352.449219 294.1875 352.304688 294.597656 352.132812 C 295.011719 351.960938 295.410156 351.761719 295.796875 351.539062 C 296.183594 351.316406 296.554688 351.066406 296.90625 350.792969 C 297.261719 350.523438 297.597656 350.230469 297.914062 349.914062 C 298.230469 349.597656 298.523438 349.261719 298.796875 348.90625 C 299.070312 348.554688 299.316406 348.183594 299.539062 347.796875 C 299.765625 347.410156 299.964844 347.011719 300.136719 346.601562 C 300.308594 346.1875 300.453125 345.765625 300.570312 345.335938 C 300.6875 344.90625 300.777344 344.46875 300.835938 344.027344 C 300.894531 343.582031 300.925781 343.136719 300.929688 342.691406 C 300.933594 342.246094 300.90625 341.800781 300.851562 341.359375 C 300.796875 340.914062 300.710938 340.476562 300.597656 340.042969 C 300.484375 339.613281 300.347656 339.1875 300.179688 338.777344 C 300.011719 338.363281 299.816406 337.960938 299.597656 337.570312 Z M 223.984375 318.785156 C 223.304688 318.78125 222.632812 318.707031 221.964844 318.570312 C 221.296875 318.433594 220.652344 318.230469 220.023438 317.96875 C 219.398438 317.703125 218.804688 317.378906 218.238281 316.996094 C 217.675781 316.617188 217.15625 316.183594 216.679688 315.699219 C 216.199219 315.214844 215.773438 314.691406 215.398438 314.121094 C 215.023438 313.554688 214.707031 312.957031 214.453125 312.324219 C 214.195312 311.695312 214.003906 311.046875 213.875 310.378906 C 213.746094 309.710938 213.683594 309.039062 213.683594 308.359375 C 213.6875 307.679688 213.757812 307.003906 213.894531 306.339844 C 214.03125 305.671875 214.230469 305.027344 214.492188 304.398438 C 214.757812 303.773438 215.078125 303.175781 215.460938 302.613281 C 215.839844 302.050781 216.273438 301.527344 216.753906 301.050781 C 217.238281 300.570312 217.761719 300.144531 218.332031 299.765625 C 218.898438 299.390625 219.496094 299.074219 220.125 298.816406 C 220.753906 298.558594 221.402344 298.363281 222.070312 298.234375 C 222.738281 298.101562 223.414062 298.039062 224.09375 298.039062 C 224.773438 298.042969 225.449219 298.109375 226.113281 298.242188 C 226.78125 298.378906 227.429688 298.574219 228.058594 298.835938 C 228.6875 299.097656 229.28125 299.417969 229.847656 299.796875 C 230.414062 300.175781 230.9375 300.605469 231.417969 301.085938 C 231.898438 301.570312 232.328125 302.09375 232.703125 302.65625 C 233.082031 303.222656 233.398438 303.820312 233.660156 304.449219 C 233.921875 305.078125 234.117188 305.726562 234.25 306.390625 C 234.382812 307.058594 234.449219 307.734375 234.449219 308.414062 C 234.449219 309.097656 234.382812 309.773438 234.246094 310.445312 C 234.113281 311.117188 233.914062 311.769531 233.648438 312.402344 C 233.386719 313.03125 233.0625 313.632812 232.679688 314.199219 C 232.300781 314.769531 231.863281 315.292969 231.378906 315.777344 C 230.890625 316.257812 230.363281 316.6875 229.792969 317.066406 C 229.21875 317.441406 228.617188 317.761719 227.984375 318.019531 C 227.347656 318.277344 226.695312 318.472656 226.023438 318.601562 C 225.347656 318.730469 224.671875 318.789062 223.984375 318.785156 Z M 223.984375 318.785156 " fill-opacity="1" fill-rule="nonzero"/></svg>