<svg xmlns="http://www.w3.org/2000/svg" xmlns:xlink="http://www.w3.org/1999/xlink" width="1080" zoomAndPan="magnify" viewBox="0 0 810 809.999993" height="1080" preserveAspectRatio="xMidYMid meet" version="1.0"><defs><g/><clipPath id="id1"><path d="M 153 396 L 531 396 L 531 604.179688 L 153 604.179688 Z M 153 396 " clip-rule="nonzero"/></clipPath></defs><rect x="-81" width="972" fill="#ffffff" y="-80.999999" height="971.999992" fill-opacity="1"/><rect x="-81" width="972" fill="#151f28" y="-80.999999" height="971.999992" fill-opacity="1"/><rect x="-81" width="972" fill="#ffffff" y="-80.999999" height="971.999992" fill-opacity="1"/><rect x="-81" width="972" fill="#151f28" y="-80.999999" height="971.999992" fill-opacity="1"/><path fill="#ffffd2" d="M 594.566406 287.410156 C 592.757812 287.414062 590.953125 287.460938 589.148438 287.550781 C 587.339844 287.644531 585.539062 287.777344 583.738281 287.957031 C 581.941406 288.136719 580.148438 288.359375 578.359375 288.628906 C 576.570312 288.894531 574.792969 289.207031 573.019531 289.5625 C 571.246094 289.917969 569.484375 290.3125 567.730469 290.753906 C 565.976562 291.195312 564.234375 291.679688 562.503906 292.207031 C 560.777344 292.734375 559.0625 293.304688 557.359375 293.914062 C 555.65625 294.527344 553.972656 295.179688 552.300781 295.871094 C 550.632812 296.566406 548.980469 297.300781 547.347656 298.074219 C 545.714844 298.847656 544.097656 299.664062 542.503906 300.515625 C 540.910156 301.371094 539.339844 302.261719 537.789062 303.195312 C 536.238281 304.125 534.710938 305.09375 533.210938 306.101562 C 531.707031 307.105469 530.230469 308.148438 528.777344 309.226562 C 527.324219 310.304688 525.902344 311.417969 524.503906 312.566406 C 523.105469 313.714844 521.738281 314.894531 520.398438 316.113281 C 519.058594 317.328125 517.75 318.574219 516.472656 319.855469 C 515.195312 321.132812 513.949219 322.445312 512.734375 323.785156 C 511.519531 325.125 510.339844 326.496094 509.191406 327.894531 C 508.042969 329.292969 506.933594 330.71875 505.855469 332.171875 C 504.777344 333.625 503.738281 335.105469 502.730469 336.609375 C 501.726562 338.113281 500.761719 339.640625 499.828125 341.191406 C 498.898438 342.746094 498.007812 344.320312 497.15625 345.914062 C 496.300781 347.507812 495.488281 349.125 494.714844 350.761719 C 493.941406 352.394531 493.207031 354.050781 492.515625 355.722656 C 491.820312 357.390625 491.171875 359.078125 490.558594 360.785156 C 489.949219 362.488281 489.382812 364.203125 488.855469 365.933594 C 488.328125 367.667969 487.84375 369.410156 487.402344 371.164062 C 486.964844 372.921875 486.566406 374.683594 486.210938 376.460938 C 485.855469 378.234375 485.546875 380.015625 485.277344 381.804688 C 485.011719 383.597656 484.789062 385.390625 484.609375 387.191406 C 484.429688 388.992188 484.292969 390.796875 484.203125 392.605469 C 484.113281 394.410156 484.066406 396.21875 484.0625 398.03125 C 484.0625 398.777344 484.0625 399.523438 484.0625 400.269531 L 452.726562 454.570312 C 452.324219 455.285156 452.019531 456.035156 451.808594 456.824219 C 451.601562 457.617188 451.5 458.421875 451.5 459.238281 C 451.5 460.058594 451.601562 460.863281 451.808594 461.652344 C 452.019531 462.445312 452.324219 463.195312 452.726562 463.90625 C 453.128906 464.621094 453.617188 465.269531 454.195312 465.855469 C 454.769531 466.441406 455.410156 466.9375 456.117188 467.351562 C 456.828125 467.765625 457.574219 468.078125 458.367188 468.292969 C 459.160156 468.507812 459.964844 468.613281 460.785156 468.613281 L 474.960938 468.613281 L 474.960938 499.238281 C 474.960938 500.433594 475.023438 501.628906 475.144531 502.820312 C 475.261719 504.015625 475.441406 505.199219 475.675781 506.371094 C 475.910156 507.546875 476.203125 508.707031 476.550781 509.851562 C 476.898438 511 477.304688 512.125 477.761719 513.230469 C 478.222656 514.335938 478.734375 515.417969 479.300781 516.476562 C 479.863281 517.53125 480.480469 518.558594 481.144531 519.554688 C 481.808594 520.546875 482.523438 521.507812 483.28125 522.433594 C 484.042969 523.359375 484.84375 524.246094 485.691406 525.09375 C 486.535156 525.941406 487.421875 526.746094 488.347656 527.503906 C 489.273438 528.265625 490.230469 528.980469 491.226562 529.644531 C 492.222656 530.3125 493.246094 530.925781 494.300781 531.492188 C 495.355469 532.058594 496.4375 532.570312 497.542969 533.03125 C 498.648438 533.488281 499.773438 533.894531 500.917969 534.242188 C 502.0625 534.59375 503.21875 534.886719 504.394531 535.121094 C 505.566406 535.355469 506.75 535.535156 507.941406 535.652344 C 509.128906 535.773438 510.324219 535.832031 511.519531 535.835938 L 545.394531 535.835938 L 545.394531 570.566406 C 545.394531 571.179688 545.457031 571.789062 545.574219 572.390625 C 545.695312 572.992188 545.871094 573.574219 546.105469 574.140625 C 546.339844 574.707031 546.628906 575.246094 546.96875 575.753906 C 547.308594 576.265625 547.695312 576.734375 548.128906 577.167969 C 548.5625 577.601562 549.03125 577.988281 549.542969 578.332031 C 550.050781 578.671875 550.585938 578.957031 551.152344 579.195312 C 551.71875 579.429688 552.300781 579.605469 552.902344 579.726562 C 553.503906 579.84375 554.109375 579.902344 554.722656 579.902344 L 666.121094 579.902344 C 666.734375 579.902344 667.339844 579.84375 667.941406 579.726562 C 668.542969 579.605469 669.125 579.429688 669.691406 579.195312 C 670.257812 578.957031 670.792969 578.671875 671.304688 578.332031 C 671.8125 577.988281 672.285156 577.601562 672.714844 577.167969 C 673.148438 576.734375 673.535156 576.265625 673.875 575.753906 C 674.21875 575.246094 674.503906 574.707031 674.738281 574.140625 C 674.972656 573.574219 675.148438 572.992188 675.269531 572.390625 C 675.390625 571.789062 675.449219 571.179688 675.449219 570.566406 L 675.449219 473.46875 C 677.277344 471.511719 679.03125 469.492188 680.710938 467.410156 C 682.394531 465.324219 683.996094 463.183594 685.519531 460.984375 C 687.046875 458.78125 688.492188 456.53125 689.851562 454.222656 C 691.214844 451.917969 692.492188 449.566406 693.683594 447.167969 C 694.875 444.769531 695.976562 442.332031 696.988281 439.855469 C 698.003906 437.375 698.925781 434.863281 699.757812 432.316406 C 700.589844 429.773438 701.328125 427.199219 701.972656 424.601562 C 702.617188 422 703.167969 419.382812 703.621094 416.742188 C 704.078125 414.101562 704.4375 411.449219 704.699219 408.785156 C 704.960938 406.121094 705.125 403.449219 705.195312 400.769531 C 705.261719 398.09375 705.234375 395.417969 705.105469 392.742188 C 704.980469 390.066406 704.757812 387.398438 704.4375 384.738281 C 704.117188 382.082031 703.703125 379.4375 703.191406 376.808594 C 702.679688 374.179688 702.070312 371.570312 701.371094 368.988281 C 700.667969 366.402344 699.875 363.847656 698.988281 361.320312 C 698.101562 358.792969 697.125 356.300781 696.058594 353.84375 C 694.988281 351.390625 693.835938 348.976562 692.589844 346.605469 C 691.347656 344.230469 690.023438 341.910156 688.609375 339.632812 C 687.199219 337.359375 685.707031 335.136719 684.132812 332.96875 C 682.558594 330.804688 680.910156 328.695312 679.183594 326.652344 C 677.460938 324.605469 675.660156 322.621094 673.792969 320.707031 C 671.921875 318.789062 669.984375 316.945312 667.980469 315.171875 C 665.976562 313.394531 663.914062 311.695312 661.785156 310.070312 C 659.660156 308.445312 657.476562 306.902344 655.238281 305.433594 C 652.996094 303.96875 650.707031 302.585938 648.367188 301.289062 C 646.027344 299.988281 643.644531 298.777344 641.21875 297.652344 C 638.789062 296.523438 636.324219 295.488281 633.820312 294.542969 C 631.316406 293.597656 628.785156 292.742188 626.21875 291.980469 C 623.652344 291.21875 621.066406 290.550781 618.453125 289.976562 C 615.839844 289.402344 613.207031 288.925781 610.558594 288.542969 C 607.910156 288.160156 605.253906 287.875 602.582031 287.6875 C 599.914062 287.496094 597.242188 287.40625 594.566406 287.410156 Z M 549.796875 421.855469 C 549.171875 421.863281 548.546875 421.804688 547.929688 421.6875 C 547.3125 421.570312 546.714844 421.390625 546.132812 421.15625 C 545.550781 420.917969 544.996094 420.628906 544.472656 420.28125 C 543.949219 419.9375 543.460938 419.542969 543.015625 419.101562 C 542.566406 418.660156 542.167969 418.175781 541.816406 417.65625 C 541.464844 417.136719 541.164062 416.585938 540.921875 416.007812 C 540.679688 415.425781 540.492188 414.828125 540.367188 414.214844 C 540.242188 413.597656 540.175781 412.976562 540.171875 412.347656 C 540.167969 411.71875 540.226562 411.09375 540.347656 410.476562 C 540.46875 409.859375 540.644531 409.261719 540.882812 408.679688 C 541.121094 408.097656 541.414062 407.542969 541.761719 407.019531 C 542.105469 406.496094 542.5 406.007812 542.945312 405.5625 C 543.386719 405.117188 543.867188 404.71875 544.390625 404.367188 C 544.910156 404.015625 545.460938 403.71875 546.039062 403.476562 C 546.621094 403.234375 547.21875 403.050781 547.832031 402.925781 C 548.449219 402.800781 549.070312 402.738281 549.699219 402.734375 C 550.328125 402.734375 550.949219 402.792969 551.566406 402.914062 C 552.183594 403.035156 552.78125 403.21875 553.359375 403.457031 C 553.941406 403.695312 554.492188 403.988281 555.015625 404.339844 C 555.539062 404.6875 556.023438 405.082031 556.46875 405.527344 C 556.914062 405.972656 557.308594 406.453125 557.660156 406.976562 C 558.007812 407.5 558.304688 408.050781 558.542969 408.632812 C 558.785156 409.210938 558.96875 409.8125 559.089844 410.429688 C 559.214844 411.042969 559.273438 411.667969 559.273438 412.296875 C 559.292969 412.925781 559.25 413.550781 559.148438 414.171875 C 559.042969 414.792969 558.878906 415.394531 558.652344 415.984375 C 558.429688 416.570312 558.148438 417.132812 557.8125 417.664062 C 557.476562 418.195312 557.09375 418.6875 556.660156 419.144531 C 556.226562 419.601562 555.75 420.007812 555.234375 420.367188 C 554.71875 420.730469 554.175781 421.035156 553.597656 421.289062 C 553.023438 421.539062 552.425781 421.734375 551.8125 421.867188 C 551.199219 422 550.574219 422.070312 549.949219 422.082031 Z M 549.796875 421.855469 " fill-opacity="1" fill-rule="nonzero"/><path fill="#aa96da" d="M 660.675781 281.511719 C 659.660156 281.511719 658.671875 281.355469 657.710938 281.035156 C 656.746094 280.71875 655.859375 280.257812 655.046875 279.652344 C 654.230469 279.046875 653.535156 278.328125 652.953125 277.496094 C 652.371094 276.664062 651.9375 275.761719 651.648438 274.789062 C 648.148438 261.988281 643.671875 249.539062 638.214844 237.441406 C 636.550781 233.777344 634.796875 230.15625 632.953125 226.578125 C 631.109375 223 629.179688 219.46875 627.160156 215.984375 C 625.144531 212.503906 623.042969 209.070312 620.859375 205.691406 C 618.675781 202.308594 616.40625 198.984375 614.058594 195.714844 C 611.710938 192.449219 609.285156 189.238281 606.78125 186.089844 C 604.273438 182.9375 601.695312 179.851562 599.039062 176.828125 C 596.378906 173.808594 593.652344 170.851562 590.851562 167.960938 C 588.050781 165.074219 585.179688 162.253906 582.238281 159.507812 C 579.300781 156.757812 576.292969 154.085938 573.222656 151.484375 C 570.152344 148.886719 567.019531 146.363281 563.824219 143.914062 C 560.632812 141.46875 557.378906 139.101562 554.066406 136.816406 C 550.757812 134.53125 547.394531 132.328125 543.976562 130.207031 C 540.554688 128.085938 537.085938 126.046875 533.570312 124.097656 C 530.050781 122.148438 526.488281 120.285156 522.878906 118.507812 C 519.269531 116.730469 515.617188 115.046875 511.925781 113.449219 C 508.230469 111.855469 504.503906 110.347656 500.738281 108.9375 C 496.972656 107.523438 493.171875 106.203125 489.339844 104.976562 C 485.511719 103.75 481.652344 102.617188 477.765625 101.582031 C 473.878906 100.542969 469.96875 99.601562 466.039062 98.757812 C 462.105469 97.914062 458.15625 97.164062 454.1875 96.515625 C 450.21875 95.863281 446.234375 95.3125 442.238281 94.855469 C 438.242188 94.402344 434.238281 94.042969 430.222656 93.785156 C 426.210938 93.527344 422.191406 93.367188 418.171875 93.308594 C 414.148438 93.246094 410.128906 93.285156 406.109375 93.421875 C 402.089844 93.558594 398.074219 93.792969 394.066406 94.125 C 390.058594 94.460938 386.0625 94.890625 382.074219 95.421875 C 378.085938 95.953125 374.117188 96.578125 370.160156 97.304688 C 366.203125 98.03125 362.269531 98.851562 358.351562 99.769531 C 354.4375 100.6875 350.546875 101.703125 346.679688 102.8125 C 342.8125 103.921875 338.976562 105.125 335.167969 106.425781 C 331.363281 107.722656 327.589844 109.113281 323.851562 110.597656 C 320.109375 112.082031 316.410156 113.65625 312.75 115.320312 C 300.914062 120.710938 289.570312 126.996094 278.722656 134.175781 C 267.875 141.351562 257.652344 149.332031 248.058594 158.121094 C 247.609375 158.554688 247.121094 158.9375 246.59375 159.273438 C 246.066406 159.609375 245.511719 159.890625 244.929688 160.113281 C 244.34375 160.335938 243.746094 160.496094 243.128906 160.597656 C 242.511719 160.699219 241.894531 160.738281 241.269531 160.714844 C 240.644531 160.6875 240.03125 160.601562 239.421875 160.453125 C 238.816406 160.304688 238.230469 160.09375 237.667969 159.828125 C 237.101562 159.558594 236.570312 159.238281 236.074219 158.863281 C 235.574219 158.488281 235.117188 158.066406 234.703125 157.597656 C 234.289062 157.144531 233.925781 156.65625 233.605469 156.132812 C 233.289062 155.605469 233.023438 155.054688 232.816406 154.480469 C 232.605469 153.90625 232.453125 153.3125 232.355469 152.707031 C 232.261719 152.101562 232.226562 151.492188 232.25 150.878906 C 232.277344 150.265625 232.359375 149.660156 232.5 149.066406 C 232.644531 148.46875 232.84375 147.890625 233.097656 147.335938 C 233.351562 146.777344 233.660156 146.25 234.015625 145.75 C 234.375 145.253906 234.777344 144.796875 235.226562 144.375 C 239.035156 140.863281 242.945312 137.46875 246.957031 134.1875 C 250.96875 130.90625 255.070312 127.746094 259.265625 124.703125 C 263.460938 121.664062 267.742188 118.75 272.109375 115.960938 C 276.476562 113.171875 280.921875 110.515625 285.445312 107.988281 C 289.96875 105.460938 294.5625 103.070312 299.222656 100.8125 C 303.886719 98.554688 308.613281 96.4375 313.398438 94.457031 C 318.1875 92.480469 323.027344 90.644531 327.925781 88.949219 C 332.820312 87.253906 337.761719 85.703125 342.746094 84.300781 C 347.734375 82.898438 352.757812 81.640625 357.816406 80.53125 C 362.875 79.425781 367.964844 78.464844 373.082031 77.65625 C 378.195312 76.847656 383.332031 76.1875 388.488281 75.683594 C 393.640625 75.175781 398.808594 74.820312 403.980469 74.617188 C 409.15625 74.414062 414.335938 74.363281 419.515625 74.460938 C 424.691406 74.5625 429.863281 74.816406 435.027344 75.222656 C 440.191406 75.628906 445.339844 76.183594 450.46875 76.890625 C 455.601562 77.601562 460.707031 78.457031 465.789062 79.464844 C 470.867188 80.472656 475.914062 81.628906 480.929688 82.933594 C 485.941406 84.242188 490.910156 85.691406 495.839844 87.289062 C 500.765625 88.886719 505.644531 90.625 510.46875 92.511719 C 515.296875 94.394531 520.0625 96.417969 524.769531 98.582031 C 529.476562 100.746094 534.113281 103.046875 538.6875 105.484375 C 543.257812 107.921875 547.753906 110.492188 552.175781 113.195312 C 556.597656 115.894531 560.933594 118.722656 565.191406 121.679688 C 569.445312 124.636719 573.609375 127.71875 577.683594 130.917969 C 581.757812 134.121094 585.734375 137.4375 589.613281 140.875 C 593.492188 144.308594 597.269531 147.855469 600.941406 151.511719 C 604.613281 155.171875 608.171875 158.933594 611.625 162.800781 C 615.074219 166.667969 618.410156 170.632812 621.625 174.695312 C 624.84375 178.757812 627.941406 182.914062 630.914062 187.15625 C 633.890625 191.402344 636.734375 195.730469 639.457031 200.144531 C 642.175781 204.554688 644.765625 209.042969 647.222656 213.609375 C 649.679688 218.175781 652 222.808594 654.183594 227.507812 L 657.691406 172.085938 C 657.722656 171.480469 657.816406 170.878906 657.96875 170.289062 C 658.121094 169.699219 658.328125 169.128906 658.589844 168.582031 C 658.855469 168.03125 659.167969 167.511719 659.535156 167.027344 C 659.902344 166.539062 660.3125 166.09375 660.765625 165.6875 C 661.21875 165.28125 661.707031 164.921875 662.234375 164.613281 C 662.757812 164.304688 663.308594 164.050781 663.882812 163.847656 C 664.457031 163.648438 665.046875 163.507812 665.648438 163.421875 C 666.25 163.335938 666.855469 163.3125 667.464844 163.347656 C 668.074219 163.390625 668.675781 163.492188 669.269531 163.652344 C 669.859375 163.8125 670.429688 164.03125 670.980469 164.300781 C 671.527344 164.574219 672.046875 164.894531 672.53125 165.269531 C 673.019531 165.644531 673.464844 166.058594 673.867188 166.519531 C 674.273438 166.980469 674.628906 167.476562 674.9375 168.007812 C 675.246094 168.535156 675.5 169.089844 675.699219 169.671875 C 675.898438 170.25 676.039062 170.84375 676.121094 171.453125 C 676.207031 172.058594 676.230469 172.671875 676.195312 173.28125 L 669.777344 272.773438 C 669.75 273.320312 669.671875 273.859375 669.546875 274.394531 C 669.417969 274.929688 669.246094 275.449219 669.027344 275.949219 C 668.808594 276.453125 668.546875 276.933594 668.242188 277.390625 C 667.9375 277.84375 667.597656 278.269531 667.214844 278.664062 C 666.835938 279.0625 666.421875 279.417969 665.976562 279.738281 C 665.53125 280.058594 665.0625 280.339844 664.566406 280.574219 C 664.074219 280.8125 663.5625 281 663.03125 281.148438 C 662.503906 281.292969 661.96875 281.386719 661.421875 281.4375 Z M 660.675781 281.511719 " fill-opacity="1" fill-rule="nonzero"/><g clip-path="url(#id1)"><path fill="#a8d8ea" d="M 414.597656 604.03125 C 408.359375 604.027344 402.128906 603.800781 395.90625 603.359375 C 389.6875 602.914062 383.488281 602.253906 377.3125 601.371094 C 371.136719 600.488281 365 599.390625 358.902344 598.078125 C 352.804688 596.761719 346.761719 595.234375 340.773438 593.492188 C 334.78125 591.75 328.859375 589.796875 323.007812 587.636719 C 317.15625 585.476562 311.386719 583.113281 305.699219 580.546875 C 300.015625 577.976562 294.425781 575.214844 288.9375 572.25 C 283.445312 569.289062 278.066406 566.136719 272.796875 562.792969 C 267.527344 559.449219 262.382812 555.925781 257.363281 552.21875 C 252.34375 548.515625 247.460938 544.636719 242.710938 540.585938 C 237.964844 536.535156 233.367188 532.320312 228.917969 527.945312 C 224.46875 523.570312 220.175781 519.042969 216.046875 514.363281 C 211.917969 509.683594 207.957031 504.867188 204.164062 499.90625 C 200.375 494.949219 196.761719 489.863281 193.328125 484.648438 C 189.898438 479.433594 186.652344 474.105469 183.59375 468.664062 C 180.539062 463.222656 177.675781 457.675781 175.011719 452.03125 L 172.398438 504.691406 C 172.371094 505.300781 172.28125 505.90625 172.132812 506.5 C 171.984375 507.097656 171.777344 507.671875 171.519531 508.226562 C 171.257812 508.78125 170.941406 509.304688 170.578125 509.800781 C 170.214844 510.292969 169.804688 510.746094 169.351562 511.15625 C 168.898438 511.570312 168.40625 511.933594 167.882812 512.25 C 167.355469 512.566406 166.804688 512.828125 166.226562 513.035156 C 165.652344 513.242188 165.058594 513.390625 164.453125 513.484375 C 163.847656 513.574219 163.238281 513.605469 162.625 513.574219 C 162.011719 513.546875 161.410156 513.457031 160.816406 513.308594 C 160.21875 513.160156 159.644531 512.953125 159.089844 512.691406 C 158.535156 512.429688 158.011719 512.117188 157.519531 511.753906 C 157.027344 511.386719 156.574219 510.980469 156.164062 510.523438 C 155.75 510.070312 155.386719 509.582031 155.070312 509.054688 C 154.753906 508.527344 154.492188 507.976562 154.285156 507.398438 C 154.078125 506.820312 153.929688 506.230469 153.839844 505.621094 C 153.746094 505.015625 153.71875 504.40625 153.746094 503.792969 L 158.671875 405.574219 C 158.703125 405.027344 158.78125 404.488281 158.910156 403.957031 C 159.035156 403.421875 159.207031 402.90625 159.425781 402.40625 C 159.640625 401.902344 159.902344 401.421875 160.203125 400.964844 C 160.503906 400.511719 160.84375 400.082031 161.21875 399.6875 C 161.59375 399.289062 162.003906 398.929688 162.441406 398.605469 C 162.882812 398.28125 163.347656 397.996094 163.835938 397.753906 C 164.328125 397.507812 164.832031 397.3125 165.359375 397.15625 C 165.882812 397.003906 166.417969 396.894531 166.960938 396.835938 C 167.503906 396.777344 168.046875 396.765625 168.59375 396.800781 C 169.136719 396.835938 169.675781 396.917969 170.207031 397.050781 C 170.738281 397.179688 171.253906 397.355469 171.753906 397.578125 C 172.253906 397.796875 172.730469 398.0625 173.183594 398.367188 C 173.636719 398.671875 174.0625 399.015625 174.453125 399.394531 C 174.847656 399.773438 175.207031 400.183594 175.527344 400.628906 C 175.847656 401.070312 176.128906 401.539062 176.367188 402.03125 C 176.605469 402.523438 176.800781 403.03125 176.953125 403.558594 C 180.5 416.359375 185.027344 428.808594 190.53125 440.902344 C 192.195312 444.574219 193.949219 448.199219 195.789062 451.785156 C 197.632812 455.371094 199.5625 458.90625 201.578125 462.398438 C 203.59375 465.886719 205.695312 469.324219 207.878906 472.710938 C 210.0625 476.097656 212.328125 479.425781 214.675781 482.703125 C 217.027344 485.976562 219.453125 489.191406 221.957031 492.347656 C 224.464844 495.503906 227.046875 498.59375 229.703125 501.621094 C 232.363281 504.652344 235.09375 507.613281 237.894531 510.507812 C 240.699219 513.402344 243.570312 516.222656 246.511719 518.976562 C 249.453125 521.730469 252.460938 524.410156 255.535156 527.015625 C 258.605469 529.617188 261.742188 532.148438 264.941406 534.597656 C 268.136719 537.046875 271.390625 539.417969 274.707031 541.710938 C 278.019531 544 281.386719 546.207031 284.808594 548.332031 C 288.230469 550.457031 291.703125 552.496094 295.226562 554.449219 C 298.746094 556.40625 302.316406 558.273438 305.929688 560.050781 C 309.542969 561.828125 313.195312 563.515625 316.894531 565.117188 C 320.589844 566.714844 324.324219 568.222656 328.09375 569.636719 C 331.863281 571.050781 335.667969 572.375 339.503906 573.601562 C 343.339844 574.832031 347.203125 575.964844 351.09375 577 C 354.984375 578.039062 358.898438 578.980469 362.835938 579.828125 C 366.773438 580.671875 370.726562 581.421875 374.703125 582.070312 C 378.675781 582.722656 382.664062 583.277344 386.664062 583.730469 C 390.664062 584.1875 394.675781 584.542969 398.695312 584.800781 C 402.714844 585.058594 406.734375 585.214844 410.761719 585.277344 C 414.789062 585.335938 418.8125 585.296875 422.839844 585.160156 C 426.863281 585.019531 430.882812 584.78125 434.894531 584.445312 C 438.90625 584.109375 442.910156 583.675781 446.902344 583.144531 C 450.890625 582.613281 454.867188 581.980469 458.828125 581.253906 C 462.789062 580.523438 466.730469 579.699219 470.648438 578.777344 C 474.570312 577.855469 478.464844 576.835938 482.335938 575.722656 C 486.207031 574.609375 490.046875 573.402344 493.855469 572.097656 C 497.667969 570.796875 501.445312 569.398438 505.1875 567.910156 C 508.929688 566.421875 512.632812 564.84375 516.296875 563.171875 C 516.863281 562.832031 517.460938 562.554688 518.085938 562.34375 C 518.714844 562.128906 519.355469 561.984375 520.011719 561.90625 C 520.667969 561.832031 521.328125 561.824219 521.984375 561.886719 C 522.644531 561.953125 523.289062 562.082031 523.917969 562.285156 C 524.546875 562.484375 525.152344 562.75 525.726562 563.078125 C 526.300781 563.40625 526.832031 563.792969 527.324219 564.234375 C 527.816406 564.679688 528.257812 565.167969 528.644531 565.703125 C 529.03125 566.242188 529.359375 566.8125 529.625 567.417969 C 529.894531 568.023438 530.09375 568.652344 530.226562 569.300781 C 530.359375 569.949219 530.421875 570.601562 530.417969 571.265625 C 530.410156 571.925781 530.335938 572.582031 530.191406 573.226562 C 530.046875 573.875 529.835938 574.496094 529.558594 575.097656 C 529.28125 575.699219 528.941406 576.265625 528.542969 576.792969 C 528.148438 577.324219 527.699219 577.804688 527.199219 578.238281 C 526.699219 578.671875 526.160156 579.046875 525.578125 579.367188 C 525 579.683594 524.390625 579.9375 523.757812 580.128906 C 515.21875 584.039062 506.492188 587.480469 497.582031 590.457031 C 488.675781 593.4375 479.632812 595.929688 470.457031 597.9375 C 461.28125 599.945312 452.027344 601.460938 442.691406 602.476562 C 433.355469 603.496094 423.988281 604.011719 414.597656 604.03125 Z M 414.597656 604.03125 " fill-opacity="1" fill-rule="nonzero"/></g><path fill="#fcbad3" d="M 308.644531 269.859375 L 283.796875 226.910156 L 283.796875 225.640625 C 283.796875 223.820312 283.738281 222 283.625 220.183594 C 283.511719 218.363281 283.34375 216.550781 283.121094 214.742188 C 282.898438 212.9375 282.621094 211.136719 282.289062 209.347656 C 281.957031 207.554688 281.570312 205.777344 281.132812 204.007812 C 280.691406 202.242188 280.199219 200.488281 279.652344 198.75 C 279.109375 197.011719 278.511719 195.292969 277.859375 193.59375 C 277.210938 191.890625 276.511719 190.210938 275.757812 188.550781 C 275.007812 186.894531 274.207031 185.257812 273.355469 183.648438 C 272.503906 182.039062 271.605469 180.457031 270.660156 178.898438 C 269.714844 177.34375 268.722656 175.820312 267.683594 174.324219 C 266.644531 172.828125 265.5625 171.367188 264.433594 169.9375 C 263.304688 168.503906 262.136719 167.113281 260.925781 165.753906 C 259.714844 164.394531 258.460938 163.074219 257.171875 161.789062 C 255.878906 160.507812 254.550781 159.265625 253.183594 158.0625 C 251.816406 156.859375 250.414062 155.699219 248.976562 154.582031 C 247.539062 153.464844 246.070312 152.394531 244.566406 151.367188 C 243.066406 150.339844 241.535156 149.355469 239.972656 148.421875 C 238.410156 147.484375 236.824219 146.597656 235.207031 145.761719 C 233.59375 144.921875 231.953125 144.132812 230.289062 143.394531 C 228.628906 142.65625 226.945312 141.964844 225.238281 141.328125 C 223.535156 140.691406 221.8125 140.109375 220.074219 139.574219 C 218.332031 139.042969 216.578125 138.5625 214.808594 138.136719 C 213.039062 137.710938 211.257812 137.339844 209.46875 137.019531 C 207.675781 136.703125 205.875 136.4375 204.070312 136.230469 C 202.261719 136.019531 200.449219 135.867188 198.632812 135.769531 C 196.816406 135.667969 194.996094 135.625 193.179688 135.636719 C 191.359375 135.648438 189.542969 135.714844 187.726562 135.835938 C 185.910156 135.957031 184.101562 136.132812 182.296875 136.367188 C 180.492188 136.597656 178.695312 136.882812 176.90625 137.222656 C 175.121094 137.5625 173.34375 137.957031 171.582031 138.40625 C 169.816406 138.855469 168.070312 139.355469 166.335938 139.910156 C 164.601562 140.464844 162.886719 141.070312 161.191406 141.730469 C 159.492188 142.386719 157.820312 143.097656 156.164062 143.855469 C 154.511719 144.617188 152.882812 145.425781 151.277344 146.285156 C 149.671875 147.144531 148.097656 148.050781 146.546875 149.003906 C 144.996094 149.957031 143.476562 150.960938 141.988281 152.007812 C 140.5 153.050781 139.042969 154.144531 137.621094 155.277344 C 136.195312 156.414062 134.808594 157.589844 133.457031 158.808594 C 132.105469 160.027344 130.792969 161.289062 129.515625 162.585938 C 128.242188 163.886719 127.007812 165.222656 125.8125 166.597656 C 124.617188 167.96875 123.464844 169.378906 122.355469 170.820312 C 121.246094 172.265625 120.179688 173.742188 119.160156 175.25 C 118.140625 176.757812 117.167969 178.296875 116.242188 179.863281 C 115.3125 181.429688 114.4375 183.023438 113.605469 184.644531 C 112.773438 186.265625 111.996094 187.910156 111.261719 189.578125 C 110.53125 191.246094 109.851562 192.9375 109.222656 194.644531 C 108.597656 196.355469 108.019531 198.082031 107.496094 199.824219 C 106.972656 201.570312 106.5 203.328125 106.082031 205.101562 C 105.664062 206.875 105.300781 208.65625 104.992188 210.453125 C 104.683594 212.246094 104.429688 214.050781 104.226562 215.859375 C 104.027344 217.671875 103.882812 219.484375 103.792969 221.304688 C 103.703125 223.125 103.664062 224.945312 103.6875 226.765625 C 103.707031 228.585938 103.78125 230.40625 103.910156 232.222656 C 104.039062 234.039062 104.222656 235.851562 104.464844 237.65625 C 104.703125 239.460938 104.996094 241.257812 105.347656 243.046875 C 105.695312 244.832031 106.097656 246.609375 106.550781 248.371094 C 107.007812 250.136719 107.515625 251.882812 108.078125 253.617188 C 108.640625 255.347656 109.253906 257.0625 109.917969 258.757812 C 110.585938 260.453125 111.300781 262.125 112.066406 263.777344 C 112.832031 265.429688 113.648438 267.058594 114.515625 268.660156 C 115.378906 270.261719 116.292969 271.835938 117.253906 273.382812 C 118.214844 274.929688 119.222656 276.445312 120.273438 277.933594 C 121.324219 279.417969 122.421875 280.871094 123.5625 282.289062 C 124.703125 283.710938 125.886719 285.09375 127.109375 286.441406 L 127.109375 363.449219 C 127.109375 364.058594 127.167969 364.667969 127.289062 365.269531 C 127.40625 365.871094 127.585938 366.453125 127.820312 367.019531 C 128.054688 367.585938 128.339844 368.125 128.679688 368.632812 C 129.019531 369.144531 129.40625 369.617188 129.839844 370.050781 C 130.273438 370.484375 130.746094 370.871094 131.253906 371.210938 C 131.761719 371.550781 132.300781 371.839844 132.867188 372.074219 C 133.433594 372.308594 134.015625 372.484375 134.617188 372.605469 C 135.21875 372.722656 135.824219 372.785156 136.4375 372.785156 L 225.523438 372.785156 C 226.132812 372.773438 226.730469 372.707031 227.324219 372.578125 C 227.917969 372.453125 228.492188 372.269531 229.046875 372.03125 C 229.605469 371.792969 230.132812 371.5 230.632812 371.160156 C 231.136719 370.816406 231.597656 370.429688 232.023438 369.996094 C 232.449219 369.566406 232.828125 369.09375 233.160156 368.589844 C 233.496094 368.082031 233.777344 367.546875 234.007812 366.988281 C 234.238281 366.425781 234.410156 365.847656 234.527344 365.25 C 234.644531 364.65625 234.703125 364.054688 234.703125 363.449219 L 234.703125 337.605469 L 259.847656 337.605469 C 260.867188 337.605469 261.882812 337.554688 262.898438 337.453125 C 263.910156 337.355469 264.917969 337.203125 265.917969 337.003906 C 266.917969 336.808594 267.90625 336.558594 268.878906 336.261719 C 269.855469 335.96875 270.8125 335.625 271.753906 335.234375 C 272.695312 334.84375 273.617188 334.40625 274.515625 333.925781 C 275.414062 333.445312 276.285156 332.921875 277.132812 332.355469 C 277.980469 331.789062 278.796875 331.179688 279.585938 330.535156 C 280.375 329.886719 281.128906 329.203125 281.847656 328.480469 C 282.570312 327.761719 283.253906 327.003906 283.898438 326.214844 C 284.546875 325.429688 285.152344 324.609375 285.71875 323.761719 C 286.285156 322.914062 286.808594 322.039062 287.289062 321.140625 C 287.769531 320.242188 288.203125 319.320312 288.59375 318.375 C 288.984375 317.433594 289.324219 316.476562 289.621094 315.5 C 289.917969 314.523438 290.164062 313.535156 290.363281 312.535156 C 290.5625 311.535156 290.710938 310.527344 290.8125 309.511719 C 290.910156 308.496094 290.960938 307.476562 290.960938 306.457031 L 290.960938 284.050781 L 300.363281 284.050781 C 300.769531 284.046875 301.175781 284.019531 301.582031 283.964844 C 301.984375 283.910156 302.382812 283.828125 302.777344 283.722656 C 303.171875 283.613281 303.558594 283.480469 303.933594 283.324219 C 304.308594 283.167969 304.675781 282.984375 305.027344 282.78125 C 305.378906 282.574219 305.71875 282.347656 306.042969 282.101562 C 306.363281 281.851562 306.671875 281.582031 306.960938 281.292969 C 307.246094 281.003906 307.515625 280.699219 307.765625 280.375 C 308.015625 280.050781 308.242188 279.710938 308.445312 279.359375 C 308.648438 279.007812 308.832031 278.640625 308.988281 278.265625 C 309.144531 277.886719 309.277344 277.503906 309.382812 277.109375 C 309.492188 276.714844 309.570312 276.316406 309.628906 275.910156 C 309.683594 275.503906 309.710938 275.097656 309.714844 274.691406 C 309.714844 274.28125 309.691406 273.875 309.640625 273.46875 C 309.589844 273.066406 309.511719 272.664062 309.410156 272.269531 C 309.308594 271.875 309.179688 271.488281 309.027344 271.109375 C 308.875 270.730469 308.695312 270.363281 308.496094 270.007812 Z M 239.476562 252.828125 C 238.855469 252.824219 238.242188 252.757812 237.632812 252.632812 C 237.027344 252.507812 236.433594 252.324219 235.863281 252.082031 C 235.292969 251.839844 234.746094 251.542969 234.234375 251.195312 C 233.71875 250.84375 233.246094 250.449219 232.808594 250.007812 C 232.371094 249.5625 231.984375 249.082031 231.640625 248.5625 C 231.300781 248.046875 231.011719 247.496094 230.777344 246.921875 C 230.542969 246.347656 230.367188 245.753906 230.25 245.140625 C 230.128906 244.53125 230.074219 243.914062 230.078125 243.292969 C 230.078125 242.671875 230.144531 242.054688 230.269531 241.445312 C 230.390625 240.839844 230.574219 240.246094 230.816406 239.671875 C 231.054688 239.101562 231.347656 238.554688 231.695312 238.039062 C 232.042969 237.523438 232.4375 237.046875 232.878906 236.609375 C 233.320312 236.171875 233.796875 235.78125 234.316406 235.4375 C 234.835938 235.09375 235.378906 234.804688 235.953125 234.566406 C 236.53125 234.332031 237.121094 234.152344 237.730469 234.035156 C 238.339844 233.914062 238.957031 233.855469 239.578125 233.859375 C 240.199219 233.859375 240.8125 233.921875 241.421875 234.042969 C 242.03125 234.167969 242.621094 234.347656 243.195312 234.585938 C 243.769531 234.824219 244.3125 235.117188 244.828125 235.464844 C 245.347656 235.8125 245.824219 236.203125 246.261719 236.644531 C 246.699219 237.085938 247.09375 237.5625 247.4375 238.082031 C 247.78125 238.597656 248.074219 239.144531 248.308594 239.71875 C 248.546875 240.292969 248.726562 240.886719 248.847656 241.496094 C 248.96875 242.105469 249.027344 242.722656 249.027344 243.34375 C 249.027344 243.96875 248.96875 244.589844 248.84375 245.203125 C 248.722656 245.816406 248.539062 246.414062 248.300781 246.992188 C 248.058594 247.570312 247.765625 248.117188 247.417969 248.636719 C 247.066406 249.15625 246.671875 249.636719 246.226562 250.078125 C 245.78125 250.519531 245.300781 250.910156 244.777344 251.257812 C 244.257812 251.601562 243.707031 251.890625 243.128906 252.128906 C 242.546875 252.363281 241.953125 252.542969 241.335938 252.660156 C 240.722656 252.777344 240.101562 252.832031 239.476562 252.828125 Z M 239.476562 252.828125 " fill-opacity="1" fill-rule="nonzero"/><g fill="#eceaf7" fill-opacity="1"><g transform="translate(188.666405, 731.597791)"><g><path d="M 4.5 -33.03125 C 4.5 -39.03125 6.015625 -44.640625 9.046875 -49.859375 C 12.078125 -55.078125 16.1875 -59.226562 21.375 -62.3125 C 26.5625 -65.40625 32.1875 -66.953125 38.25 -66.953125 C 44.3125 -66.953125 49.9375 -65.40625 55.125 -62.3125 C 60.3125 -59.226562 64.453125 -55.078125 67.546875 -49.859375 C 70.640625 -44.640625 72.1875 -39.03125 72.1875 -33.03125 C 72.1875 -26.90625 70.640625 -21.265625 67.546875 -16.109375 C 64.453125 -10.953125 60.3125 -6.859375 55.125 -3.828125 C 49.9375 -0.796875 44.3125 0.71875 38.25 0.71875 C 32.125 0.71875 26.484375 -0.796875 21.328125 -3.828125 C 16.171875 -6.859375 12.078125 -10.953125 9.046875 -16.109375 C 6.015625 -21.265625 4.5 -26.90625 4.5 -33.03125 Z M 18 -33.03125 C 18 -29.1875 18.910156 -25.644531 20.734375 -22.40625 C 22.566406 -19.164062 25.054688 -16.597656 28.203125 -14.703125 C 31.359375 -12.816406 34.859375 -11.875 38.703125 -11.875 C 42.421875 -11.875 45.804688 -12.816406 48.859375 -14.703125 C 51.921875 -16.597656 54.320312 -19.148438 56.0625 -22.359375 C 57.8125 -25.578125 58.6875 -29.132812 58.6875 -33.03125 C 58.6875 -36.988281 57.785156 -40.585938 55.984375 -43.828125 C 54.179688 -47.066406 51.734375 -49.628906 48.640625 -51.515625 C 45.554688 -53.410156 42.125 -54.359375 38.34375 -54.359375 C 34.5625 -54.359375 31.125 -53.410156 28.03125 -51.515625 C 24.945312 -49.628906 22.503906 -47.066406 20.703125 -43.828125 C 18.898438 -40.585938 18 -36.988281 18 -33.03125 Z M 18 -33.03125 "/></g></g></g><g fill="#eceaf7" fill-opacity="1"><g transform="translate(265.336426, 731.597791)"><g><path d="M 33.65625 -41.3125 C 37.320312 -41.3125 40.59375 -40.441406 43.46875 -38.703125 C 46.351562 -36.960938 48.617188 -34.472656 50.265625 -31.234375 C 51.910156 -27.992188 52.734375 -24.179688 52.734375 -19.796875 C 52.734375 -15.472656 51.816406 -11.738281 49.984375 -8.59375 C 48.160156 -5.445312 45.613281 -3.046875 42.34375 -1.390625 C 39.070312 0.253906 35.335938 1.078125 31.140625 1.078125 C 28.859375 1.078125 26.625 0.675781 24.4375 -0.125 C 22.25 -0.9375 20.429688 -2.09375 18.984375 -3.59375 L 18.984375 18.90625 L 6.484375 18.90625 L 6.484375 -40.234375 L 17.28125 -40.234375 L 18.359375 -35.546875 C 23.160156 -39.390625 28.257812 -41.3125 33.65625 -41.3125 Z M 28.625 -8.8125 C 31.738281 -8.8125 34.40625 -9.832031 36.625 -11.875 C 38.84375 -13.914062 39.953125 -16.5 39.953125 -19.625 C 39.953125 -22.863281 38.945312 -25.515625 36.9375 -27.578125 C 34.9375 -29.648438 32.460938 -30.6875 29.515625 -30.6875 C 27.054688 -30.6875 24.972656 -30.191406 23.265625 -29.203125 C 21.554688 -28.210938 20.160156 -26.726562 19.078125 -24.75 L 19.078125 -15.125 C 19.734375 -13.195312 20.914062 -11.660156 22.625 -10.515625 C 24.34375 -9.378906 26.34375 -8.8125 28.625 -8.8125 Z M 28.625 -8.8125 "/></g></g></g><g fill="#eceaf7" fill-opacity="1"><g transform="translate(321.489114, 731.597791)"><g><path d="M 26.09375 -9.625 C 28.613281 -9.625 31.226562 -10.492188 33.9375 -12.234375 L 39.515625 -2.875 C 37.347656 -1.675781 35.0625 -0.71875 32.65625 0 C 30.257812 0.71875 27.984375 1.078125 25.828125 1.078125 C 21.148438 1.078125 17.113281 0.191406 13.71875 -1.578125 C 10.332031 -3.347656 7.769531 -5.835938 6.03125 -9.046875 C 4.289062 -12.253906 3.421875 -15.925781 3.421875 -20.0625 C 3.421875 -23.90625 4.425781 -27.445312 6.4375 -30.6875 C 8.445312 -33.925781 11.191406 -36.488281 14.671875 -38.375 C 18.148438 -40.269531 21.957031 -41.21875 26.09375 -41.21875 C 31.738281 -41.21875 36.375 -39.566406 40 -36.265625 C 43.632812 -32.960938 45.988281 -28.253906 47.0625 -22.140625 L 18.265625 -12.953125 C 20.191406 -10.734375 22.800781 -9.625 26.09375 -9.625 Z M 25.109375 -31.40625 C 22.285156 -31.40625 20.035156 -30.445312 18.359375 -28.53125 C 16.679688 -26.613281 15.84375 -24.035156 15.84375 -20.796875 L 15.84375 -19.984375 L 33.125 -25.828125 C 31.863281 -29.546875 29.191406 -31.40625 25.109375 -31.40625 Z M 25.109375 -31.40625 "/></g></g></g><g fill="#eceaf7" fill-opacity="1"><g transform="translate(371.252635, 731.597791)"><g><path d="M 33.84375 -41.21875 C 37.5625 -41.21875 40.664062 -40.109375 43.15625 -37.890625 C 45.644531 -35.671875 46.921875 -32.851562 46.984375 -29.4375 L 46.984375 0 L 34.375 0 L 34.375 -24.75 C 34.195312 -28.59375 32.28125 -30.515625 28.625 -30.515625 C 25.738281 -30.515625 23.425781 -29.160156 21.6875 -26.453125 C 19.945312 -23.753906 19.078125 -20.273438 19.078125 -16.015625 L 19.078125 0 L 6.484375 0 L 6.484375 -39.328125 L 17.90625 -39.328125 L 18.8125 -33.03125 C 20.25 -35.613281 22.242188 -37.625 24.796875 -39.0625 C 27.347656 -40.5 30.363281 -41.21875 33.84375 -41.21875 Z M 33.84375 -41.21875 "/></g></g></g><g fill="#fed3dc" fill-opacity="1"><g transform="translate(424.705459, 731.597791)"><g><path d="M 43.921875 -50.21875 C 38.160156 -53.394531 33.148438 -54.984375 28.890625 -54.984375 C 26.003906 -54.984375 23.765625 -54.410156 22.171875 -53.265625 C 20.585938 -52.128906 19.796875 -50.425781 19.796875 -48.15625 C 19.796875 -46.050781 20.953125 -44.203125 23.265625 -42.609375 C 25.578125 -41.023438 28.648438 -39.507812 32.484375 -38.0625 C 35.609375 -36.925781 38.28125 -35.625 40.5 -34.15625 C 42.71875 -32.6875 44.5625 -30.660156 46.03125 -28.078125 C 47.5 -25.492188 48.234375 -22.222656 48.234375 -18.265625 C 48.234375 -14.847656 47.347656 -11.679688 45.578125 -8.765625 C 43.816406 -5.859375 41.222656 -3.550781 37.796875 -1.84375 C 34.378906 -0.132812 30.300781 0.71875 25.5625 0.71875 C 21.601562 0.71875 17.671875 0.132812 13.765625 -1.03125 C 9.867188 -2.207031 6.238281 -3.992188 2.875 -6.390625 L 8.640625 -16.5625 C 10.921875 -14.882812 13.53125 -13.503906 16.46875 -12.421875 C 19.40625 -11.335938 22.046875 -10.796875 24.390625 -10.796875 C 27.148438 -10.796875 29.550781 -11.378906 31.59375 -12.546875 C 33.632812 -13.722656 34.65625 -15.628906 34.65625 -18.265625 C 34.65625 -21.691406 31.441406 -24.664062 25.015625 -27.1875 C 21.234375 -28.6875 18.082031 -30.125 15.5625 -31.5 C 13.050781 -32.875 10.878906 -34.851562 9.046875 -37.4375 C 7.210938 -40.019531 6.296875 -43.257812 6.296875 -47.15625 C 6.296875 -52.851562 8.171875 -57.441406 11.921875 -60.921875 C 15.671875 -64.410156 20.664062 -66.300781 26.90625 -66.59375 C 31.832031 -66.59375 35.941406 -66.035156 39.234375 -64.921875 C 42.535156 -63.816406 45.75 -62.242188 48.875 -60.203125 Z M 43.921875 -50.21875 "/></g></g></g><g fill="#fed3dc" fill-opacity="1"><g transform="translate(477.168629, 731.597791)"><g><path d="M 48.78125 -39.328125 L 48.78125 0 L 36.1875 0 L 36.1875 -4.859375 C 32.40625 -0.898438 28.023438 1.078125 23.046875 1.078125 C 17.222656 1.078125 12.492188 -0.660156 8.859375 -4.140625 C 5.234375 -7.617188 3.421875 -12.78125 3.421875 -19.625 C 3.421875 -23.9375 4.304688 -27.726562 6.078125 -31 C 7.847656 -34.269531 10.203125 -36.804688 13.140625 -38.609375 C 16.078125 -40.410156 19.226562 -41.3125 22.59375 -41.3125 C 26.070312 -41.3125 28.832031 -40.785156 30.875 -39.734375 C 32.914062 -38.679688 34.710938 -37.195312 36.265625 -35.28125 L 37.078125 -39.328125 Z M 26.640625 -9.1875 C 31.015625 -9.1875 34.195312 -11.164062 36.1875 -15.125 L 36.1875 -24.75 C 35.457031 -26.664062 34.207031 -28.191406 32.4375 -29.328125 C 30.675781 -30.472656 28.59375 -31.046875 26.1875 -31.046875 C 23.425781 -31.046875 21.070312 -30.023438 19.125 -27.984375 C 17.175781 -25.953125 16.203125 -23.375 16.203125 -20.25 C 16.203125 -18.207031 16.679688 -16.332031 17.640625 -14.625 C 18.597656 -12.914062 19.867188 -11.582031 21.453125 -10.625 C 23.046875 -9.664062 24.773438 -9.1875 26.640625 -9.1875 Z M 26.640625 -9.1875 "/></g></g></g><g fill="#fed3dc" fill-opacity="1"><g transform="translate(532.421434, 731.597791)"><g><path d="M 10.265625 -28.34375 L 3.59375 -28.34375 L 3.59375 -39.515625 L 10.265625 -39.515625 L 10.265625 -53.1875 C 10.265625 -58.46875 11.773438 -62.710938 14.796875 -65.921875 C 17.828125 -69.128906 22.101562 -70.734375 27.625 -70.734375 C 29.425781 -70.734375 31.347656 -70.460938 33.390625 -69.921875 C 35.429688 -69.390625 37.203125 -68.582031 38.703125 -67.5 L 33.390625 -58.40625 C 32.304688 -59.726562 30.835938 -60.390625 28.984375 -60.390625 C 27.117188 -60.390625 25.628906 -59.757812 24.515625 -58.5 C 23.410156 -57.238281 22.859375 -55.347656 22.859375 -52.828125 L 22.859375 -39.515625 L 34.734375 -39.515625 L 34.734375 -28.34375 L 22.859375 -28.34375 L 22.859375 0 L 10.265625 0 Z M 10.265625 -28.34375 "/></g></g></g><g fill="#fed3dc" fill-opacity="1"><g transform="translate(571.566337, 731.597791)"><g><path d="M 26.09375 -9.625 C 28.613281 -9.625 31.226562 -10.492188 33.9375 -12.234375 L 39.515625 -2.875 C 37.347656 -1.675781 35.0625 -0.71875 32.65625 0 C 30.257812 0.71875 27.984375 1.078125 25.828125 1.078125 C 21.148438 1.078125 17.113281 0.191406 13.71875 -1.578125 C 10.332031 -3.347656 7.769531 -5.835938 6.03125 -9.046875 C 4.289062 -12.253906 3.421875 -15.925781 3.421875 -20.0625 C 3.421875 -23.90625 4.425781 -27.445312 6.4375 -30.6875 C 8.445312 -33.925781 11.191406 -36.488281 14.671875 -38.375 C 18.148438 -40.269531 21.957031 -41.21875 26.09375 -41.21875 C 31.738281 -41.21875 36.375 -39.566406 40 -36.265625 C 43.632812 -32.960938 45.988281 -28.253906 47.0625 -22.140625 L 18.265625 -12.953125 C 20.191406 -10.734375 22.800781 -9.625 26.09375 -9.625 Z M 25.109375 -31.40625 C 22.285156 -31.40625 20.035156 -30.445312 18.359375 -28.53125 C 16.679688 -26.613281 15.84375 -24.035156 15.84375 -20.796875 L 15.84375 -19.984375 L 33.125 -25.828125 C 31.863281 -29.546875 29.191406 -31.40625 25.109375 -31.40625 Z M 25.109375 -31.40625 "/></g></g></g></svg>